<?xml version="1.0" encoding="utf-8"?>
<!-- Generator: Adobe Illustrator 18.1.1, SVG Export Plug-In . SVG Version: 6.00 Build 0)  -->
<svg version="1.1" id="Disruptive" xmlns="http://www.w3.org/2000/svg" xmlns:xlink="http://www.w3.org/1999/xlink" x="0px" y="0px"
	 viewBox="0 0 64 64" enable-background="new 0 0 64 64" xml:space="preserve">
<g>
	<path fill-rule="evenodd" clip-rule="evenodd" fill="#202020" d="M26.2,56.1c-0.5,0-1-0.4-1-1c0-0.5,0.4-1,1-1h11.6
		c0.5,0,1,0.4,1,1c0,0.5-0.4,1-1,1H26.2z"/>
	<path fill-rule="evenodd" clip-rule="evenodd" fill="#202020" d="M26.2,56.1L26.2,56.1z"/>
	<path fill-rule="evenodd" clip-rule="evenodd" fill="#202020" d="M27.5,60c-0.5,0-1-0.5-1-1c0-0.5,0.4-1,1-1h9c0.5,0,1,0.4,1,1
		c0,0.5-0.5,1-1,1H27.5z"/>
	<path fill-rule="evenodd" clip-rule="evenodd" fill="#202020" d="M27.5,60L27.5,60z"/>
	<path fill-rule="evenodd" clip-rule="evenodd" fill="#202020" d="M31.1,46.2L31.1,46.2z"/>
	<path fill-rule="evenodd" clip-rule="evenodd" fill="#202020" d="M34.9,46.2L34.9,46.2z"/>
	<path fill-rule="evenodd" clip-rule="evenodd" fill="#202020" d="M25.5,27.6L25.5,27.6z"/>
	<path fill-rule="evenodd" clip-rule="evenodd" fill="#202020" d="M33,4.9L33,4.9z"/>
	<path fill-rule="evenodd" clip-rule="evenodd" fill="#202020" d="M37.9,25.7L37.9,25.7z"/>
	<path fill-rule="evenodd" clip-rule="evenodd" fill="#202020" d="M21.6,32.1c0.2,0.5,0,1.1-0.5,1.3c-0.5,0.2-1.1,0-1.3-0.5
		c-0.3-0.8-0.6-1.6-0.8-2.5c-0.2-0.9-0.3-1.8-0.3-2.7c0-0.5,0.4-1,1-1c0.5,0,1,0.4,1,1c0,0.8,0.1,1.5,0.2,2.3
		C21.1,30.7,21.3,31.4,21.6,32.1z"/>
	<path fill-rule="evenodd" clip-rule="evenodd" fill="#202020" d="M25.7,18.3c-0.6,0.4-1.1,0.9-1.7,1.4c-0.5,0.5-1,1.1-1.4,1.7
		c-0.4,0.6-0.7,1.2-1,1.9c-0.2,0.5-0.8,0.7-1.3,0.5c-0.5-0.2-0.8-0.8-0.5-1.3c0.3-0.8,0.8-1.6,1.2-2.2c0.5-0.7,1-1.4,1.6-2
		c0.6-0.6,1.3-1.1,2-1.6v0c0.7-0.4,1.5-0.9,2.2-1.2c0.8-0.3,1.7-0.6,2.6-0.8c0.9-0.2,1.7-0.3,2.6-0.3c0.5,0,1,0.4,1,1
		c0,0.5-0.4,1-1,1c-0.8,0-1.5,0.1-2.3,0.2c-0.7,0.2-1.5,0.4-2.1,0.7C27,17.6,26.3,17.9,25.7,18.3z"/>
	<path fill-rule="evenodd" clip-rule="evenodd" fill="#202020" d="M49.7,26.1c-0.7,0.4-1.3,0.9-1.9,1.3c0,0.2,0,0.4,0,0.7
		c0,1.7-0.3,3.4-0.8,4.9c-0.5,1.6-1.3,3.1-2.2,4.4c-1.8,2.4-3.3,4-4.4,5.3c-2.2,2.5-3.3,3.7-3.5,7h-9.7c-0.2-3.3-1.3-4.5-3.5-7v0
		c-1.1-1.3-2.6-2.9-4.4-5.3c-1-1.3-1.7-2.8-2.3-4.4c-0.5-1.5-0.8-3.2-0.8-4.9c0-1.1,0.1-2.3,0.4-3.3c-0.7-0.1-1.3-0.2-1.9-0.4
		c-0.3,1.2-0.4,2.5-0.4,3.8c0,1.9,0.3,3.8,0.9,5.5c0.6,1.8,1.5,3.5,2.6,5c1.9,2.6,3.4,4.2,4.6,5.5c2.1,2.3,3,3.3,3,6.6
		c0,0.5,0.4,1,1,1h11.7c0.5,0,1-0.4,1-1c0-3.4,0.9-4.4,3-6.7c1.2-1.3,2.7-2.9,4.5-5.4c1.1-1.5,2-3.2,2.5-5c0.6-1.7,0.9-3.6,0.9-5.5
		C49.8,27.4,49.8,26.8,49.7,26.1z"/>
	<path fill-rule="evenodd" clip-rule="evenodd" fill="#202020" d="M25.7,5c-1.7,0.3-3.4,0.8-4.9,1.6c-2.1,1-4,2.5-5.5,4.2
		c-1.5,1.7-2.7,3.7-3.5,6l0,0.1c-0.3,1-0.6,2-0.8,3.1c0.6,0.1,1.3,0.2,2,0.3c0.1-0.9,0.4-1.9,0.7-2.8l0-0.1c0.7-1.9,1.7-3.7,3.1-5.3
		c1.4-1.5,3-2.8,4.9-3.7c1.4-0.7,2.9-1.2,4.5-1.4C26.4,6.1,26.1,5.5,25.7,5z"/>
	<path fill-rule="evenodd" clip-rule="evenodd" fill="#202020" d="M38.8,4.7c-2.1-0.9-4.4-1.4-6.8-1.4c-0.6,0-1.2,0-1.2,0l0.5,2
		c0,0,0.3-0.1,0.8-0.1c2.1,0,4.2,0.4,6,1.2c0.7,0.3,1.3,0.6,1.9,1c0.7-0.3,1.5-0.6,2.2-0.9C41.2,5.8,40,5.2,38.8,4.7z"/>
	<path fill-rule="evenodd" clip-rule="evenodd" fill="#202020" d="M48.6,12.5c-0.7-0.7-1.5-1.4-2.4-2c-0.7,0.4-1.6,0.6-2.2,0.9
		c1.2,0.7,2.2,1.5,3.2,2.4c2.7,2.7,4.4,6.4,4.6,10.5c0.6-0.5,1.3-0.9,1.9-1.3C53.2,19,51.4,15.3,48.6,12.5z"/>
	<path fill-rule="evenodd" clip-rule="evenodd" fill="#202020" d="M21.6,32.1c0.2,0.5,0,1.1-0.5,1.3c-0.5,0.2-1.1,0-1.3-0.5
		c-0.3-0.8-0.6-1.6-0.8-2.5c-0.2-0.9-0.3-1.8-0.3-2.7c0-0.5,0.4-1,1-1c0.5,0,1,0.4,1,1c0,0.8,0.1,1.5,0.2,2.3
		C21.1,30.7,21.3,31.4,21.6,32.1z"/>
	<path fill-rule="evenodd" clip-rule="evenodd" fill="#202020" d="M25.7,18.3c-0.6,0.4-1.1,0.9-1.7,1.4c-0.5,0.5-1,1.1-1.4,1.7
		c-0.4,0.6-0.7,1.2-1,1.9c-0.2,0.5-0.8,0.7-1.3,0.5c-0.5-0.2-0.8-0.8-0.5-1.3c0.3-0.8,0.8-1.6,1.2-2.2c0.5-0.7,1-1.4,1.6-2
		c0.6-0.6,1.3-1.1,2-1.6v0c0.7-0.4,1.5-0.9,2.2-1.2c0.8-0.3,1.7-0.6,2.6-0.8c0.9-0.2,1.7-0.3,2.6-0.3c0.5,0,1,0.4,1,1
		c0,0.5-0.4,1-1,1c-0.8,0-1.5,0.1-2.3,0.2c-0.7,0.2-1.5,0.4-2.1,0.7C27,17.6,26.3,17.9,25.7,18.3z"/>
	<path fill-rule="evenodd" clip-rule="evenodd" fill="#202020" d="M39.2,26.6c0,0.1,0,0.2-0.1,0.3c0,0.1-0.1,0.2-0.1,0.3
		c-1.8,3.3-2.8,5.9-3.4,8.8c-0.6,2.9-0.7,6.1-0.7,10.3c0,0.6-0.4,1-1,1c-0.5,0-1-0.4-1-1c0-4.3,0.1-7.6,0.7-10.7
		c0.5-2.3,1.2-4.5,2.3-6.8c-1.1,0.5-2.2,0.7-3.4-0.3L32,27.9l-0.6,0.5c-1.2,1-2.3,0.8-3.4,0.3c1.1,2.4,1.9,4.6,2.3,6.8
		c0.6,3,0.7,6.3,0.7,10.7c0,0.6-0.4,1-1,1c-0.5,0-1-0.4-1-1c0-4.2-0.1-7.3-0.7-10.3c-0.6-2.8-1.6-5.5-3.4-8.8
		c-0.1-0.1-0.1-0.2-0.1-0.3c0-0.1-0.1-0.2-0.1-0.3c0,0,0,0,0-0.1c0-0.1,0-0.2,0.1-0.3c0-0.1,0.1-0.2,0.2-0.3l0.2-0.2
		c0.2-0.2,0.4-0.2,0.7-0.2c0.1,0,0.2,0,0.3,0.1c0.1,0,0.2,0.1,0.2,0.1c0.6,0.2,1.1,0.5,1.6,0.7l0.1,0.1c0.9,0.4,1.6,0.8,2.1,0.3
		l1.3-1h0c0.1-0.1,0.1-0.1,0.2-0.1c0.1-0.1,0.3-0.1,0.4-0.1c0.1,0,0.2,0,0.3,0.1c0.1,0,0.2,0.1,0.2,0.1c0,0,0.1,0.1,0.1,0.1h0l1.2,1
		c0.5,0.4,1.3,0.1,2.1-0.3l0.1-0.1c0.5-0.2,1-0.5,1.6-0.7c0.1,0,0.1-0.1,0.2-0.1c0.1,0,0.2-0.1,0.3-0.1c0.3,0,0.5,0.1,0.7,0.3
		c0,0.1,0.1,0.1,0.1,0.2c0,0.1,0.1,0.1,0.1,0.2C39.2,26.4,39.2,26.5,39.2,26.6z"/>
	<path fill-rule="evenodd" clip-rule="evenodd" fill="#202020" d="M47.8,28.1L47.8,28.1z"/>
	<path fill-rule="evenodd" clip-rule="evenodd" fill="#202020" d="M28.8,64c-0.5,0-1-0.4-1-1c0-0.5,0.4-1,1-1h6.5c0.6,0,1,0.4,1,1
		c0,0.5-0.4,1-1,1H28.8z"/>
	<path fill-rule="evenodd" clip-rule="evenodd" fill="#202020" d="M28.8,64L28.8,64z"/>
	<path fill-rule="evenodd" clip-rule="evenodd" fill="#202020" d="M46.1,8.3c-0.5,0.3-1.1,0.1-1.4-0.4c-0.3-0.5-0.1-1.1,0.4-1.3
		l3.4-1.8c0.5-0.3,1.1-0.1,1.3,0.4c0.3,0.5,0.1,1.1-0.4,1.3L46.1,8.3z"/>
	<path fill-rule="evenodd" clip-rule="evenodd" fill="#202020" d="M44.3,8.4L44.3,8.4z"/>
	<path fill-rule="evenodd" clip-rule="evenodd" fill="#202020" d="M29,4.4c0.2,0.5-0.1,1.1-0.7,1.2c-0.5,0.2-1.1-0.1-1.2-0.7L26,1.3
		c-0.2-0.5,0.1-1.1,0.7-1.2c0.5-0.2,1.1,0.1,1.3,0.7L29,4.4z"/>
	<path fill-rule="evenodd" clip-rule="evenodd" fill="#202020" d="M11.5,22.1c0.5-0.1,1,0.3,1.1,0.9c0.1,0.6-0.3,1-0.9,1.1l-3.9,0.4
		c-0.5,0.1-1-0.3-1.1-0.9c-0.1-0.5,0.3-1,0.9-1.1L11.5,22.1z"/>
	<path fill-rule="evenodd" clip-rule="evenodd" fill="#202020" d="M52.3,27.9c-0.5-0.2-0.7-0.8-0.5-1.3c0.2-0.5,0.8-0.8,1.3-0.5
		l3.6,1.5c0.5,0.2,0.8,0.8,0.5,1.3c-0.2,0.5-0.8,0.8-1.3,0.5L52.3,27.9z"/>
	<path fill-rule="evenodd" clip-rule="evenodd" fill="#202020" d="M52.2,17.1L52.2,17.1z"/>
	<path fill-rule="evenodd" clip-rule="evenodd" fill="#202020" d="M21.1,33.4c-0.5,0.2-1.1,0-1.3-0.5c-0.3-0.8-0.6-1.6-0.8-2.5
		c-0.2-0.9-0.3-1.8-0.3-2.7c0-0.5,0.4-1,1-1c0.5,0,1,0.4,1,1c0,0.8,0.1,1.5,0.2,2.3c0.1,0.7,0.4,1.5,0.7,2.1
		C21.8,32.6,21.6,33.2,21.1,33.4z"/>
	<path fill-rule="evenodd" clip-rule="evenodd" fill="#202020" d="M33,15.4c0,0.5-0.4,1-1,1c-0.8,0-1.5,0.1-2.3,0.2
		c-0.7,0.2-1.5,0.4-2.1,0.7c-0.7,0.3-1.3,0.6-1.9,1c-0.6,0.4-1.1,0.9-1.7,1.4c-0.5,0.5-1,1.1-1.4,1.7c-0.4,0.6-0.7,1.2-1,1.9
		c-0.2,0.5-0.8,0.7-1.3,0.5c-0.5-0.2-0.8-0.8-0.5-1.3c0.3-0.8,0.8-1.6,1.2-2.2c0.5-0.7,1-1.4,1.6-2c0.6-0.6,1.3-1.1,2-1.6v0
		c0.7-0.4,1.5-0.9,2.2-1.2c0.8-0.3,1.7-0.6,2.6-0.8c0.9-0.2,1.7-0.3,2.6-0.3C32.6,14.4,33,14.9,33,15.4z"/>
	<path fill-rule="evenodd" clip-rule="evenodd" fill="#202020" d="M21.6,23.3L21.6,23.3z"/>
</g>
</svg>
