<?xml version="1.0" encoding="utf-8"?>
<!-- Generator: Adobe Illustrator 18.1.1, SVG Export Plug-In . SVG Version: 6.00 Build 0)  -->
<svg version="1.1" id="Global" xmlns="http://www.w3.org/2000/svg" xmlns:xlink="http://www.w3.org/1999/xlink" x="0px" y="0px"
	 viewBox="0 0 64 64" enable-background="new 0 0 64 64" xml:space="preserve">
<path fill="#202020" d="M64,32.2c0-0.1,0-0.1,0-0.2C64,14.4,49.6,0,32,0C14.4,0,0,14.4,0,32c0,0.1,0,0.1,0,0.2c0,0,0,0.1,0,0.1
	c0,0.1,0,0.2,0,0.4C0.4,50,14.6,64,31.9,64c0,0,0,0,0.1,0c0,0,0,0,0.1,0C49.4,64,63.6,50,64,32.7c0-0.1,0-0.2,0-0.4
	C64,32.3,64,32.2,64,32.2L64,32.2z M48.1,31.3c0-3.7-0.4-7.3-1-10.5c7.9,2.2,13.4,6.1,14.1,10.5H48.1z M45.5,31.3H33.3V18.8
	c3.9,0.1,7.6,0.5,11,1.3C45,23.6,45.5,27.4,45.5,31.3L45.5,31.3z M33.3,16.2V2.8c4.3,1,8.1,6.6,10.3,14.5
	C40.4,16.6,36.9,16.3,33.3,16.2L33.3,16.2z M30.7,2.8v13.4c-3.6,0.1-7.1,0.4-10.3,1C22.5,9.4,26.4,3.7,30.7,2.8L30.7,2.8z
	 M30.7,18.8v12.5H18.5c0-4,0.5-7.8,1.2-11.2C23.1,19.4,26.8,18.9,30.7,18.8L30.7,18.8z M15.9,31.3H2.7c0.7-4.4,6.3-8.3,14.1-10.5
	C16.2,24.1,15.9,27.6,15.9,31.3L15.9,31.3z M15.9,34c0.1,3.5,0.5,6.8,1.1,9.9C9.4,41.7,4,38.1,2.9,34H15.9z M18.5,34h12.2v11.9
	c-3.8-0.1-7.5-0.5-10.8-1.2C19.1,41.3,18.6,37.7,18.5,34L18.5,34z M30.7,48.4v12.8c-4.2-0.9-7.9-6.3-10.1-13.8
	C23.7,48,27.1,48.4,30.7,48.4L30.7,48.4z M33.3,61.2V48.4c3.6-0.1,7-0.4,10.1-1C41.2,55,37.5,60.3,33.3,61.2L33.3,61.2z M33.3,45.8
	V34h12.2c-0.1,3.8-0.6,7.3-1.3,10.6C40.8,45.3,37.1,45.7,33.3,45.8L33.3,45.8z M48.1,34h13c-1.1,4.1-6.6,7.8-14.1,9.9
	C47.6,40.8,48,37.5,48.1,34L48.1,34z M60.5,24.9c-3.1-3-7.9-5.5-13.9-7c-1.5-6.1-3.9-11.1-7-14.3C49.8,6.4,57.9,14.5,60.5,24.9
	L60.5,24.9z M24.4,3.6c-3,3.1-5.5,8.1-7,14.3c-6,1.5-10.9,4-14,7C6.1,14.5,14.2,6.4,24.4,3.6L24.4,3.6z M3.7,40
	c3.1,2.9,7.9,5.3,13.9,6.8c1.5,5.8,3.9,10.6,6.8,13.6C14.5,57.7,6.6,49.9,3.7,40L3.7,40z M39.6,60.4c2.9-3,5.3-7.8,6.8-13.6
	c5.9-1.5,10.8-3.8,13.9-6.8C57.4,49.9,49.5,57.7,39.6,60.4L39.6,60.4z M39.6,60.4"/>
</svg>
