<?xml version="1.0" encoding="utf-8"?>
<!-- Generator: Adobe Illustrator 18.1.1, SVG Export Plug-In . SVG Version: 6.00 Build 0)  -->
<svg version="1.1" id="H2H" xmlns="http://www.w3.org/2000/svg" xmlns:xlink="http://www.w3.org/1999/xlink" x="0px" y="0px"
	 viewBox="0 0 64 64" enable-background="new 0 0 64 64" xml:space="preserve">
<g>
	<path fill="#202020" d="M21.6,39.8h-2.5v-14H2.5v14H0V10.6h2.5v13.1h16.7V10.6h2.5V39.8z"/>
	<path fill="#202020" d="M37.7,53.4H27v-1.1l5.8-6.6c1-1.1,1.6-2,2-2.8c0.4-0.7,0.6-1.4,0.6-2.1c0-1.1-0.3-1.9-0.9-2.6
		c-0.6-0.6-1.5-0.9-2.6-0.9c-1.2,0-2.1,0.4-2.8,1.1c-0.7,0.7-1.1,1.7-1.1,2.9h-1.4c0-1,0.2-1.8,0.6-2.6c0.4-0.8,1.1-1.4,1.8-1.9
		c0.8-0.4,1.7-0.7,2.7-0.7c1.6,0,2.8,0.4,3.7,1.2c0.9,0.8,1.3,1.9,1.3,3.3c0,0.8-0.2,1.7-0.7,2.6c-0.5,0.9-1.4,2.1-2.6,3.5l-4.7,5.4
		h8.9V53.4z"/>
	<path fill="#202020" d="M64,39.8h-2.5v-14H44.8v14h-2.5V10.6h2.5v13.1h16.7V10.6H64V39.8z"/>
</g>
</svg>
