<?xml version="1.0" encoding="utf-8"?>
<!-- Generator: Adobe Illustrator 18.1.1, SVG Export Plug-In . SVG Version: 6.00 Build 0)  -->
<svg version="1.1" id="Impact" xmlns="http://www.w3.org/2000/svg" xmlns:xlink="http://www.w3.org/1999/xlink" x="0px" y="0px"
	 viewBox="0 0 64 64" enable-background="new 0 0 64 64" xml:space="preserve">
<path fill="#202020" d="M55.4,23.5h-6.7c-0.9,0-1.6,0.7-1.6,1.6c0,0.9,0.7,1.6,1.6,1.6h6.7c0.9,0,1.6-0.7,1.6-1.6
	C57,24.1,56.3,23.5,55.4,23.5L55.4,23.5z M55.4,23.5"/>
<path fill="#202020" d="M45.9,19.3c0.3,0.6,0.7,0.9,1.5,0.9c0.3,0,0.5,0,0.6-0.1l6.3-2.6c0.8-0.3,1.2-1.2,0.9-2
	c-0.3-0.8-1.3-1.2-2.1-0.9l-6.2,2.6C46,17.5,45.6,18.4,45.9,19.3L45.9,19.3z M45.9,19.3"/>
<path fill="#202020" d="M54.2,32.5L48,29.9c-0.8-0.3-1.7,0.1-2,0.9c-0.3,0.8,0.1,1.7,0.9,2l6.2,2.6c0.4,0.1,0.6,0.1,0.7,0.1
	c0.7,0,1.2-0.3,1.4-1C55.5,33.8,55,32.8,54.2,32.5L54.2,32.5z M54.2,32.5"/>
<path fill="#202020" d="M42.7,14.3c0.5,0.6,1.7,0.6,2.2,0l4.7-4.8c0.7-0.7,0.7-1.6,0-2.3c-0.6-0.6-1.5-0.6-2.2,0.1l-4.8,4.8
	C42,12.8,42,13.7,42.7,14.3L42.7,14.3z M42.7,14.3"/>
<path fill="#202020" d="M49.7,40.5l-4.7-4.8c-0.6-0.6-1.6-0.6-2.2,0c-0.7,0.6-0.7,1.6,0,2.2l4.8,4.8c0.3,0.3,0.7,0.5,1.1,0.5
	C49.8,43.2,50.7,41.3,49.7,40.5L49.7,40.5z M49.7,40.5"/>
<path fill="#202020" d="M37.8,11c0.2,0.1,0.4,0.1,0.6,0.1c0.7,0,1.2-0.3,1.4-1l2.6-6.2c0.3-0.8,0-1.8-0.8-2.1
	c-0.8-0.3-1.8,0-2.1,0.8L36.9,9C36.6,9.9,37,10.7,37.8,11L37.8,11z M37.8,11"/>
<path fill="#202020" d="M39.8,39.8c-0.3-0.8-1.2-1.2-2.1-0.8c-0.8,0.3-1.2,1.2-0.8,2l2.6,6.3c0.3,0.6,0.7,0.9,1.4,0.9
	c0.3,0,0.5,0,0.6-0.1c0.8-0.3,1.2-1.2,0.9-2L39.8,39.8z M39.8,39.8"/>
<path fill="#202020" d="M32,0c-0.9,0-1.6,0.7-1.6,1.6v6.8c0,0.9,0.7,1.6,1.6,1.6c0.9,0,1.6-0.7,1.6-1.6V1.6C33.6,0.7,32.9,0,32,0
	L32,0z M32,0"/>
<path fill="#202020" d="M26.2,38.9c-0.8-0.3-1.8,0.1-2.1,0.9l-2.6,6.3c-0.3,0.8,0.1,1.8,0.9,2c0.1,0.1,0.3,0.1,0.6,0.1
	c0.7,0,1.2-0.3,1.5-0.9l2.6-6.3C27.4,40.2,27.1,39.2,26.2,38.9L26.2,38.9z M26.2,38.9"/>
<path fill="#202020" d="M24.5,2.7c-0.3-0.8-1.3-1.2-2.1-0.8c-0.8,0.3-1.2,1.2-0.8,2.1l2.6,6.2c0.3,0.6,0.7,1,1.5,1
	c0.1,0,0.3,0,0.6-0.1c0.8-0.3,1.2-1.2,0.9-2L24.5,2.7z M24.5,2.7"/>
<path fill="#202020" d="M19.1,14.3c0.3,0.3,0.7,0.5,1.1,0.5c0.4,0,0.8-0.1,1.1-0.5c0.6-0.5,0.6-1.6,0-2.2l-4.8-4.8
	c-0.6-0.6-1.6-0.7-2.2,0c-0.7,0.6-0.7,1.6,0,2.2L19.1,14.3z M19.1,14.3"/>
<path fill="#202020" d="M21.4,35.7c-0.7-0.6-1.7-0.6-2.3,0l-4.8,4.8c-0.6,0.6-0.6,1.6,0,2.2c0.7,0.6,1.6,0.7,2.2,0l4.8-4.8
	C21.9,37.3,21.9,36.3,21.4,35.7L21.4,35.7z M21.4,35.7"/>
<path fill="#202020" d="M9.8,17.5l6.3,2.6c0.3,0.1,0.5,0.1,0.6,0.1c0.7,0,1.2-0.3,1.5-1c0.3-0.8-0.1-1.7-0.9-2L11,14.6
	c-0.8-0.3-1.8,0-2,0.8C8.6,16.3,9,17.1,9.8,17.5L9.8,17.5z M9.8,17.5"/>
<path fill="#202020" d="M18,30.8c-0.3-0.8-1.2-1.2-2-0.9l-6.3,2.6c-0.8,0.3-1.2,1.3-0.8,2.1c0.3,0.6,0.7,0.9,1.4,0.9
	c0.1,0,0.3-0.1,0.6-0.1l6.3-2.6C18,32.5,18.3,31.6,18,30.8L18,30.8z M18,30.8"/>
<path fill="#202020" d="M16.9,25c0-0.9-0.7-1.6-1.6-1.6H8.6C7.7,23.5,7,24.1,7,25c0,0.9,0.7,1.6,1.6,1.6h6.8
	C16.3,26.6,16.9,25.9,16.9,25L16.9,25z M16.9,25"/>
<rect x="30.5" y="32.7" fill="#202020" width="3" height="31.3"/>
<path fill="#202020" d="M32,18c3.9,0,7,3.1,7,7s-3.1,7-7,7s-7-3.1-7-7S28.1,18,32,18 M32,15c-5.5,0-10,4.5-10,10c0,5.5,4.5,10,10,10
	c5.5,0,10-4.5,10-10C42,19.5,37.5,15,32,15L32,15z"/>
</svg>
