<?xml version="1.0" encoding="utf-8"?>
<!-- Generator: Adobe Illustrator 18.1.1, SVG Export Plug-In . SVG Version: 6.00 Build 0)  -->
<svg version="1.1" id="Integrated" xmlns="http://www.w3.org/2000/svg" xmlns:xlink="http://www.w3.org/1999/xlink" x="0px" y="0px"
	 viewBox="0 0 64 64" enable-background="new 0 0 64 64" xml:space="preserve">
<g>
	<g>
		<path fill="#202020" d="M27.2,41.1c-1-2.8-3.7-4.7-6.7-4.7c-0.8,0-1.6,0.1-2.4,0.4c-1.8,0.6-3.2,1.9-4,3.7
			c-0.8,1.7-0.9,3.6-0.2,5.4c1,2.8,3.7,4.7,6.7,4.7c0.8,0,1.6-0.1,2.4-0.4C26.6,48.8,28.5,44.7,27.2,41.1z M21.8,47.1
			c-0.4,0.2-0.9,0.2-1.3,0.2c-1.6,0-3-1-3.6-2.5c-0.3-1-0.3-2,0.1-2.9c0.4-0.9,1.2-1.6,2.2-2c0.4-0.1,0.9-0.2,1.3-0.2
			c1.6,0,3.1,1,3.6,2.5C24.8,44.2,23.8,46.4,21.8,47.1z"/>
	</g>
	<g>
		<path fill="#202020" d="M39.5,42.7l-1.9-0.1c-0.1-1.1-0.2-2.3-0.5-3.4l1.8-0.7c0.8-0.3,1.3-1.2,1-2.1c-0.3-0.8-1.2-1.3-2.1-1
			l-1.8,0.7c-0.5-1-1.1-2-1.8-2.9l1.4-1.3c0.7-0.6,0.7-1.6,0.1-2.3c-0.6-0.7-1.6-0.7-2.3-0.1L32,30.8c-0.8-0.8-1.8-1.4-2.8-2L30,27
			c0.4-0.8,0-1.8-0.8-2.2c-0.8-0.4-1.8,0-2.2,0.8l-0.8,1.8c-1.1-0.4-2.2-0.7-3.3-0.8l0.1-1.9c0-0.9-0.7-1.7-1.6-1.7
			c-0.9,0-1.7,0.7-1.7,1.6l-0.1,1.9c-1.2,0.1-2.3,0.2-3.4,0.5l-0.7-1.8c-0.3-0.8-1.2-1.3-2.1-1c-0.8,0.3-1.3,1.2-1,2.1l0.7,1.8
			c-1,0.5-2,1.1-2.9,1.8L9,28.4c-0.6-0.7-1.6-0.7-2.3-0.1C6,28.9,6,29.9,6.6,30.6L7.9,32c-0.8,0.8-1.4,1.8-2,2.8L4.1,34
			c-0.8-0.4-1.8,0-2.2,0.8c-0.4,0.8,0,1.8,0.8,2.2l1.8,0.8c-0.4,1.1-0.7,2.2-0.8,3.3l-2-0.1c-0.9,0-1.7,0.7-1.7,1.6
			c0,0.9,0.7,1.7,1.6,1.7l2,0.1c0.1,1.1,0.2,2.3,0.5,3.4l-1.8,0.7c-0.8,0.3-1.3,1.2-1,2.1c0.2,0.7,0.9,1.1,1.5,1.1
			c0.2,0,0.4,0,0.6-0.1l1.8-0.7c0.5,1,1.1,2,1.8,2.9L5.5,55c-0.7,0.6-0.7,1.6-0.1,2.3c0.3,0.3,0.8,0.5,1.2,0.5
			c0.4,0,0.8-0.1,1.1-0.4l1.4-1.3c0.8,0.8,1.8,1.4,2.8,2L11,59.9c-0.4,0.8,0,1.8,0.8,2.2c0.2,0.1,0.5,0.1,0.7,0.1
			c0.6,0,1.2-0.3,1.5-0.9l0.8-1.8c1.1,0.4,2.2,0.7,3.3,0.8L18,62.3c0,0.9,0.7,1.7,1.6,1.7c0,0,0,0,0.1,0c0.9,0,1.6-0.7,1.6-1.6
			l0.1-1.9c1.2-0.1,2.3-0.2,3.4-0.5l0.7,1.8c0.2,0.7,0.9,1.1,1.5,1.1c0.2,0,0.4,0,0.6-0.1c0.9-0.3,1.3-1.2,1-2.1l-0.7-1.8
			c1-0.5,2-1.1,2.9-1.8l1.3,1.4c0.3,0.4,0.8,0.5,1.2,0.5c0.4,0,0.8-0.1,1.1-0.4c0.7-0.6,0.7-1.6,0.1-2.3l-1.3-1.4
			c0.8-0.8,1.4-1.8,2-2.7L37,53c0.2,0.1,0.5,0.2,0.7,0.2c0.6,0,1.2-0.3,1.5-0.9c0.4-0.8,0-1.8-0.8-2.2l-1.8-0.8
			c0.4-1.1,0.7-2.2,0.8-3.3l1.9,0.1h0.1c0.9,0,1.6-0.7,1.6-1.6C41.1,43.5,40.4,42.8,39.5,42.7z M33,49.3c-2.3,4.8-7.2,7.9-12.5,7.9
			c-2,0-4-0.4-5.8-1.3C7.8,52.7,4.8,44.5,8,37.6c2.3-4.8,7.2-8,12.5-8c2,0,4,0.4,5.8,1.3C33.3,34.2,36.2,42.4,33,49.3z"/>
	</g>
</g>
<g>
	<g>
		<path fill="#202020" d="M45,12.1c-1-1.8-3.1-2.9-5.2-2.6c-0.6,0.1-1.1,0.3-1.6,0.6c-1.2,0.6-2,1.7-2.4,3c-0.4,1.3-0.2,2.6,0.4,3.8
			c1,1.8,3.1,2.9,5.2,2.5c0.6-0.1,1.1-0.3,1.6-0.6C45.4,17.6,46.3,14.6,45,12.1z M41.9,16.9c-0.3,0.2-0.6,0.3-0.9,0.3
			c-1.1,0.2-2.2-0.4-2.8-1.4c-0.3-0.6-0.4-1.4-0.2-2.1c0.2-0.7,0.7-1.3,1.3-1.6c0.3-0.1,0.6-0.3,0.9-0.3c1.1-0.2,2.2,0.4,2.8,1.4
			C43.7,14.6,43.2,16.2,41.9,16.9z"/>
	</g>
	<g>
		<path fill="#202020" d="M53.7,12l-1.4,0.1c-0.2-0.8-0.4-1.6-0.7-2.3l1.2-0.7c0.6-0.3,0.8-1,0.5-1.6c-0.3-0.6-1-0.8-1.6-0.5
			l-1.2,0.7c-0.5-0.7-1-1.3-1.6-1.9l0.9-1.1c0.4-0.5,0.3-1.2-0.2-1.6c-0.5-0.4-1.2-0.3-1.6,0.2l-0.9,1.1C46.5,4,45.8,3.6,45,3.3
			L45.4,2c0.2-0.6-0.2-1.3-0.8-1.4c-0.6-0.2-1.2,0.2-1.4,0.8l-0.4,1.3c-0.8-0.2-1.6-0.2-2.4-0.2l-0.1-1.4c-0.1-0.6-0.6-1.1-1.3-1
			c-0.6,0.1-1.1,0.6-1,1.3l0.1,1.4c-0.8,0.2-1.6,0.4-2.3,0.7l-0.7-1.2c-0.3-0.6-1-0.8-1.6-0.5c-0.6,0.3-0.8,1-0.5,1.6l0.7,1.2
			c-0.7,0.5-1.3,1-1.9,1.6l-1.1-0.9c-0.5-0.4-1.2-0.3-1.6,0.2c-0.4,0.5-0.3,1.2,0.2,1.6l1.1,0.9c-0.4,0.7-0.8,1.4-1.1,2.1L28,9.7
			c-0.6-0.2-1.3,0.2-1.4,0.8c-0.2,0.6,0.2,1.3,0.8,1.4l1.3,0.4c-0.2,0.8-0.2,1.6-0.2,2.4l-1.4,0.2c-0.6,0.1-1.1,0.6-1,1.3
			c0.1,0.6,0.6,1.1,1.3,1l1.4-0.2c0.2,0.8,0.4,1.6,0.7,2.3L28.3,20c-0.6,0.3-0.8,1-0.5,1.6c0.2,0.4,0.7,0.7,1.2,0.6
			c0.1,0,0.3-0.1,0.4-0.1l1.2-0.7c0.5,0.7,1,1.3,1.6,1.9l-0.9,1.1c-0.4,0.5-0.3,1.2,0.2,1.6c0.3,0.2,0.6,0.3,0.9,0.2
			c0.3,0,0.5-0.2,0.7-0.4l0.9-1.1c0.7,0.4,1.4,0.8,2.2,1.1l-0.4,1.3c-0.2,0.6,0.2,1.3,0.8,1.4c0.2,0,0.3,0.1,0.5,0
			c0.4-0.1,0.8-0.4,0.9-0.8l0.4-1.3c0.8,0.2,1.6,0.2,2.4,0.2l0.1,1.4c0.1,0.6,0.6,1.1,1.3,1c0,0,0,0,0.1,0c0.6-0.1,1-0.7,1-1.3
			L43,26.4c0.8-0.2,1.6-0.4,2.3-0.7l0.7,1.2c0.2,0.4,0.7,0.7,1.2,0.6c0.1,0,0.3-0.1,0.4-0.1c0.6-0.3,0.8-1,0.5-1.6l-0.7-1.2
			c0.7-0.5,1.3-1,1.9-1.6l1.1,0.9c0.3,0.2,0.6,0.3,0.9,0.2c0.3,0,0.5-0.2,0.7-0.4c0.4-0.5,0.3-1.2-0.2-1.6l-1.1-0.9
			c0.4-0.7,0.8-1.4,1.1-2.1l1.3,0.4c0.2,0.1,0.3,0.1,0.5,0c0.4-0.1,0.8-0.4,0.9-0.8c0.2-0.6-0.2-1.3-0.8-1.4l-1.3-0.4
			c0.2-0.8,0.2-1.6,0.2-2.4l1.4-0.1l0.1,0c0.6-0.1,1-0.6,1-1.3C55,12.3,54.4,11.9,53.7,12z M49.9,17.3c-1.1,3.6-4.2,6.3-7.9,6.9
			c-1.4,0.2-2.8,0.1-4.2-0.3c-5.2-1.5-8.1-6.9-6.6-12.1c1.1-3.6,4.2-6.3,7.9-6.9c1.4-0.2,2.8-0.1,4.2,0.3
			C48.5,6.7,51.4,12.1,49.9,17.3z"/>
	</g>
</g>
<g>
	<g>
		<path fill="#202020" d="M52.9,34.7c-1.7-0.3-3.4,0.6-4.2,2.1c-0.2,0.4-0.4,0.9-0.5,1.3c-0.2,1.1,0.1,2.2,0.7,3
			c0.6,0.9,1.6,1.5,2.7,1.6c1.7,0.3,3.4-0.6,4.2-2.1c0.2-0.4,0.4-0.9,0.5-1.3C56.7,37.2,55.2,35.1,52.9,34.7z M54.5,39.1
			c0,0.3-0.1,0.5-0.2,0.7c-0.4,0.8-1.4,1.3-2.3,1.1c-0.6-0.1-1.1-0.4-1.4-0.9c-0.3-0.5-0.5-1.1-0.4-1.6c0-0.3,0.1-0.5,0.3-0.7
			c0.4-0.8,1.4-1.3,2.3-1.1C53.8,36.8,54.7,37.9,54.5,39.1z"/>
	</g>
	<g>
		<path fill="#202020" d="M57.2,29l-0.6,1c-0.6-0.3-1.2-0.5-1.9-0.7l0.2-1.1c0.1-0.5-0.3-1-0.8-1.1c-0.5-0.1-1,0.3-1.1,0.8L52.9,29
			c-0.7,0-1.3,0-2,0.1l-0.3-1.1c-0.1-0.5-0.6-0.8-1.1-0.7c-0.5,0.1-0.8,0.6-0.7,1.1l0.3,1.1c-0.6,0.2-1.2,0.5-1.8,0.8l-0.7-0.9
			c-0.3-0.4-0.9-0.5-1.3-0.2c-0.4,0.3-0.5,0.9-0.2,1.3l0.7,0.9c-0.5,0.4-0.9,0.9-1.3,1.4l-1-0.6c-0.4-0.3-1-0.1-1.3,0.3
			c-0.3,0.4-0.1,1,0.3,1.3l1,0.6c-0.3,0.6-0.5,1.2-0.7,1.9l-1.1-0.2c-0.5-0.1-1,0.3-1.1,0.8c-0.1,0.5,0.3,1,0.8,1.1l1.1,0.2
			c0,0.7,0,1.3,0.1,2l-1.1,0.3c-0.5,0.1-0.8,0.6-0.7,1.1c0.1,0.5,0.6,0.8,1.1,0.7L43,42c0.2,0.6,0.5,1.2,0.8,1.8l-0.9,0.7
			c-0.4,0.3-0.5,0.9-0.2,1.3c0.3,0.4,0.9,0.5,1.3,0.2l0.9-0.7c0.4,0.5,0.9,1,1.5,1.3l-0.6,1c-0.3,0.4-0.1,1,0.3,1.3
			c0.4,0.3,1,0.1,1.3-0.3l0.6-1c0.6,0.3,1.2,0.5,1.9,0.7l-0.2,1.1c-0.1,0.5,0.3,1,0.8,1.1c0.4,0.1,0.8-0.1,1-0.5
			c0.1-0.1,0.1-0.2,0.1-0.3l0.2-1.1c0.7,0,1.3,0,2-0.1l0.3,1.1c0.1,0.5,0.6,0.8,1.1,0.7c0.3-0.1,0.5-0.2,0.6-0.5
			c0.1-0.2,0.1-0.4,0.1-0.7l-0.3-1.1c0.6-0.2,1.2-0.5,1.8-0.8l0.7,0.9c0.3,0.4,0.9,0.5,1.3,0.2c0.1-0.1,0.2-0.2,0.3-0.3
			c0.2-0.3,0.2-0.7-0.1-1l-0.7-0.9c0.5-0.4,1-0.9,1.3-1.5l1,0.6c0.4,0.3,1,0.1,1.3-0.3c0,0,0,0,0,0c0.2-0.4,0.1-1-0.3-1.3l-1-0.6
			c0.3-0.6,0.5-1.2,0.7-1.9l1.1,0.2c0.4,0.1,0.8-0.1,1-0.5c0.1-0.1,0.1-0.2,0.1-0.3c0.1-0.5-0.3-1-0.8-1.1l-1.1-0.2
			c0-0.7,0-1.3-0.1-2l1.1-0.3c0.3-0.1,0.5-0.2,0.6-0.5c0.1-0.2,0.2-0.4,0.1-0.7c-0.1-0.5-0.6-0.8-1.1-0.7l-1.1,0.3
			c-0.2-0.6-0.5-1.2-0.8-1.8l0.9-0.7c0.1-0.1,0.2-0.2,0.3-0.3c0.2-0.3,0.2-0.7-0.1-1c-0.3-0.4-0.9-0.5-1.3-0.2l-0.9,0.7
			c-0.4-0.5-0.9-1-1.5-1.3l0.6-1l0,0c0.2-0.4,0.1-1-0.3-1.3C58,28.4,57.5,28.5,57.2,29z M58.7,34.1c1.8,2.5,2,5.8,0.5,8.5
			c-0.6,1-1.3,1.9-2.3,2.6c-3.5,2.6-8.5,1.8-11.1-1.8c-1.8-2.5-2-5.8-0.5-8.5c0.6-1,1.3-1.9,2.3-2.6C51.2,29.8,56.2,30.6,58.7,34.1z
			"/>
	</g>
</g>
</svg>
