<?xml version="1.0" encoding="utf-8"?>
<!-- Generator: Adobe Illustrator 18.1.1, SVG Export Plug-In . SVG Version: 6.00 Build 0)  -->
<svg version="1.1" id="Revenue" xmlns="http://www.w3.org/2000/svg" xmlns:xlink="http://www.w3.org/1999/xlink" x="0px" y="0px"
	 viewBox="0 0 64 64" enable-background="new 0 0 64 64" xml:space="preserve">
<g>
	<path fill="#202020" d="M64,34c-0.2-3.5-6.5-5-12.7-5c-2.1,0-4.2,0.2-6.1,0.6V9.3c0-0.1,0-0.1,0-0.2c-0.2-3.5-6.5-5-12.7-5
		c-6.2,0-12.5,1.6-12.7,5c0,0.1,0,0.1,0,0.2V23c-2.1-0.5-4.6-0.8-7-0.8c-6.2,0-12.5,1.6-12.7,5c0,0.1,0,0.1,0,0.2v26.9
		c0,3.6,6.4,5.2,12.7,5.2c6.3,0,12.7-1.6,12.7-5.2v-0.3c2.1,0.5,4.6,0.8,7,0.8c2.1,0,4.2-0.2,6.1-0.6v0.1c0,3.6,6.4,5.2,12.7,5.2
		c6.3,0,12.7-1.6,12.7-5.2V34.2C64,34.1,64,34.1,64,34L64,34z M45.2,32.8c1.5-0.4,3.6-0.6,6.1-0.6c5.7,0,8.9,1.4,9.5,2.1
		c-0.6,0.7-3.8,2.1-9.5,2.1c-2.5,0-4.6-0.3-6.1-0.6c-1.6-0.4-2.6-0.8-3.1-1.2c-0.1-0.1-0.2-0.2-0.3-0.2c0.1-0.1,0.1-0.1,0.3-0.2
		C42.5,33.6,43.6,33.1,45.2,32.8L45.2,32.8z M32.4,7.2c5.7,0,8.9,1.4,9.5,2.1c-0.6,0.7-3.8,2.1-9.5,2.1c-5.7,0-8.9-1.4-9.5-2.1
		C23.5,8.6,26.7,7.2,32.4,7.2L32.4,7.2z M22.9,12.9c2.5,1.1,6,1.6,9.6,1.6c3.6,0,7.1-0.5,9.6-1.6v3c-0.4,0.7-3.6,2.1-9.6,2.1
		s-9.2-1.5-9.6-2.1V12.9z M22.9,19.7c2.5,1.1,6,1.6,9.6,1.6c3.6,0,7.1-0.5,9.6-1.6v3c-0.4,0.7-3.6,2.1-9.6,2.1s-9.2-1.5-9.6-2.1
		V19.7z M12.7,25.4c3.1,0,5.4,0.4,7,0.9c1.4,0.4,2.2,0.9,2.5,1.2c-0.3,0.3-1.1,0.8-2.5,1.2c-1.6,0.5-3.9,0.9-7,0.9
		c-5.7,0-8.9-1.4-9.5-2.1C3.8,26.8,7,25.4,12.7,25.4L12.7,25.4z M3.1,31.1c2.4,1.1,6,1.6,9.6,1.6c2.5,0,4.9-0.2,7-0.7
		c0.9-0.2,1.8-0.5,2.6-0.8v3c-0.2,0.3-1.1,0.8-2.6,1.3c-1.6,0.5-3.9,0.9-7,0.9c-6,0-9.2-1.5-9.6-2.1V31.1z M3.1,37.8
		c2.4,1.1,6,1.6,9.6,1.6c2.5,0,4.9-0.2,7-0.7c0.9-0.2,1.8-0.5,2.6-0.8v3c-0.2,0.3-1.1,0.8-2.6,1.3c-1.6,0.5-3.9,0.9-7,0.9
		c-6,0-9.2-1.5-9.6-2.1V37.8z M3.1,44.5c2.4,1.1,6,1.6,9.6,1.6c2.5,0,4.9-0.2,7-0.7c0.9-0.2,1.8-0.5,2.6-0.8v3
		c-0.2,0.3-1.1,0.8-2.6,1.3c-1.6,0.5-3.9,0.9-7,0.9c-6,0-9.2-1.5-9.6-2.1V44.5z M22.3,54.3c-0.4,0.7-3.6,2.1-9.6,2.1
		c-6,0-9.2-1.5-9.6-2.1v-3c2.4,1.1,6,1.6,9.6,1.6c2.8,0,5.7-0.3,8-1c0.6-0.2,1.1-0.4,1.6-0.6V54.3z M38.6,51.1
		c-1.5,0.4-3.6,0.6-6.1,0.6c-3.1,0-5.4-0.4-7-0.9v-3.5c2.1,0.5,4.6,0.7,7,0.7c2.1,0,4.2-0.2,6.1-0.6V51.1z M38.6,44.3
		C37,44.7,35,45,32.4,45c-3.1,0-5.4-0.4-7-0.9v-3.5c2.1,0.5,4.6,0.7,7,0.7c2.1,0,4.2-0.2,6.1-0.6V44.3z M38.6,34.2v3.4
		C37,38,35,38.3,32.4,38.3c-3.1,0-5.4-0.4-7-0.9v-3.5c2.1,0.5,4.6,0.7,7,0.7C34.6,34.7,36.7,34.5,38.6,34.2
		C38.6,34.2,38.6,34.2,38.6,34.2L38.6,34.2z M32.4,31.5c-3.1,0-5.4-0.4-7-0.9v-3.2c0-0.1,0-0.1,0-0.2c0,0,0-0.1,0-0.1
		c2.1,0.5,4.6,0.8,7,0.8c3.6,0,7.1-0.5,9.6-1.6v3C41.6,30.1,38.4,31.5,32.4,31.5L32.4,31.5z M60.9,54.3c-0.4,0.7-3.6,2.1-9.6,2.1
		c-6,0-9.2-1.5-9.6-2.1v-3c0.7,0.3,1.4,0.6,2.3,0.8c2.2,0.6,4.7,0.8,7.3,0.8c3.6,0,7.1-0.5,9.6-1.6V54.3z M60.9,47.6
		c-0.4,0.7-3.6,2.1-9.6,2.1c-2.5,0-4.6-0.3-6.1-0.6c-1.6-0.4-2.6-0.8-3.1-1.2c-0.2-0.1-0.3-0.2-0.3-0.3v-3c1,0.4,2.2,0.8,3.5,1
		c1.9,0.4,4,0.6,6.1,0.6c3.6,0,7.1-0.5,9.6-1.6V47.6z M60.9,40.8c-0.4,0.7-3.6,2.1-9.6,2.1c-2.5,0-4.6-0.3-6.1-0.6
		c-1.6-0.4-2.6-0.8-3.1-1.2c-0.2-0.1-0.3-0.2-0.3-0.3v-3c1,0.4,2.2,0.8,3.5,1c1.9,0.4,4,0.6,6.1,0.6c3.6,0,7.1-0.5,9.6-1.6V40.8z
		 M60.9,40.8"/>
</g>
</svg>
