<?xml version="1.0" encoding="utf-8"?>
<!-- Generator: Adobe Illustrator 18.1.1, SVG Export Plug-In . SVG Version: 6.00 Build 0)  -->
<svg version="1.1" id="Bulb" xmlns="http://www.w3.org/2000/svg" xmlns:xlink="http://www.w3.org/1999/xlink" x="0px" y="0px"
	 viewBox="0 0 32 49.5" enable-background="new 0 0 32 49.5" xml:space="preserve">
<g>
	<path fill="#262626" d="M16,0C7.2,0,0,7.2,0,16c0,5.6,2.9,10.8,7.7,13.7v2.2c0,1.8,1.5,3.3,3.3,3.3H21c1.8,0,3.3-1.5,3.3-3.3v-2.2
		c4.8-2.9,7.7-8,7.7-13.7C32,7.2,24.8,0,16,0L16,0z M21.9,27.2c-0.5,0.3-0.9,0.9-0.9,1.5v3.1h-3.3v-9.7l4.7-4.7
		c0.6-0.6,0.6-1.7,0-2.3c-0.6-0.6-1.7-0.6-2.3,0L16,19.1L11.9,15c-0.6-0.6-1.7-0.6-2.3,0c-0.6,0.6-0.6,1.7,0,2.3l4.7,4.7v9.7H11
		v-3.1c0-0.6-0.3-1.2-0.9-1.5C5.9,25,3.3,20.7,3.3,16C3.3,9,9,3.3,16,3.3C23,3.3,28.7,9,28.7,16C28.7,20.7,26.1,25,21.9,27.2
		L21.9,27.2z M21.9,27.2"/>
	<path fill="#262626" d="M21.8,41.8H10.2c-0.9,0-1.7,0.7-1.7,1.7c0,0.9,0.7,1.7,1.7,1.7h2.3V46c0,1.9,1.6,3.5,3.5,3.5
		c1.9,0,3.5-1.6,3.5-3.5v-0.8h2.3c0.9,0,1.7-0.7,1.7-1.7C23.4,42.6,22.7,41.8,21.8,41.8L21.8,41.8z M21.8,41.8"/>
	<path fill="#262626" d="M21.8,36.8H10.2c-0.9,0-1.7,0.7-1.7,1.7c0,0.9,0.7,1.7,1.7,1.7h11.5c0.9,0,1.7-0.7,1.7-1.7
		C23.4,37.6,22.7,36.8,21.8,36.8L21.8,36.8z M21.8,36.8"/>
</g>
</svg>
