<?xml version="1.0" encoding="utf-8"?>
<!-- Generator: Adobe Illustrator 18.1.1, SVG Export Plug-In . SVG Version: 6.00 Build 0)  -->
<svg version="1.1" id="Layer_1" xmlns="http://www.w3.org/2000/svg" xmlns:xlink="http://www.w3.org/1999/xlink" x="0px"
	 y="0px" viewBox="0 0 110 33" enable-background="new 0 0 110 33" xml:space="preserve">
<path fill="#262626" d="M5,14.6v6.1c0,0.7,0,1.3,0.1,1.8c0.1,0.5,0.2,0.9,0.4,1.3C5.7,24,6,24.3,6.3,24.5c0.4,0.2,0.9,0.3,1.6,0.4
	v0.4c-0.7,0-1.4,0-2,0c-0.6,0-1.3,0-2,0c-0.7,0-1.4,0-2,0c-0.6,0-1.2,0-1.9,0v-0.4c0.6-0.1,1.1-0.2,1.5-0.4c0.4-0.2,0.6-0.5,0.8-0.8
	c0.2-0.3,0.3-0.8,0.4-1.3c0.1-0.5,0.1-1.1,0.1-1.8V4.9c0-0.7,0-1.3-0.1-1.8C2.7,2.7,2.5,2.3,2.4,1.9C2.2,1.6,1.9,1.3,1.5,1.2
	C1.1,1,0.6,0.8,0,0.8V0.3c1.1,0,2.2,0,3.3,0c1.1,0,2.2,0,3.2,0c1.1,0,7.7,0,8.6,0c0.9,0,1.6,0,2.3,0c0.6,0,1.2,0,1.7-0.1
	c0.5,0,0.9-0.1,1.2-0.1C20.1,0.8,20,1.6,20,2.4c0,0.4,0,0.7,0,1.1c0,0.4,0,0.7,0.1,1.1l-0.3,0c-0.2-0.4-0.4-0.9-0.6-1.3
	c-0.2-0.4-0.5-0.7-0.8-1c-0.3-0.3-0.8-0.5-1.3-0.7c-0.6-0.2-1.3-0.3-2.2-0.3c-1,0-7.3,0-7.9,0.1c-0.6,0-1,0.2-1.3,0.4
	c-0.3,0.2-0.5,0.5-0.6,1C5,3.3,5,3.9,5,4.6v8.5h3c0.7,0,4.4,0,4.9,0c0.5,0,1-0.1,1.3-0.2c0.3-0.1,0.6-0.3,0.8-0.5
	c0.2-0.2,0.3-0.6,0.3-1h0.4c0,0.7,0,1.2,0,1.6c0,0.3,0,0.7,0,0.9c0,0.2,0,0.3,0,0.4c0,0.1,0,0.3,0,0.5c0,0.2,0,0.4,0,0.6
	c0,0.2,0,0.5,0,0.9h-0.4c-0.1-0.4-0.2-0.7-0.4-0.9c-0.2-0.2-0.5-0.4-0.8-0.5c-0.3-0.1-0.8-0.2-1.3-0.2c-0.5,0-4.2,0-4.9,0H5z"/>
<path fill="#262626" d="M68,9.6c-1.3-2.1-3.8-6.5-4-6.8c-0.2-0.3-0.2-0.7-0.2-0.9c0-0.8,0.8-1.2,2.3-1.4V0c-0.4,0-0.8,0-1.1,0
	c-0.3,0-0.7,0-1,0c-0.3,0,0.2,0-0.1,0c-0.3,0-2.4,0-2.8,0c-0.8,0-1.6,0-2.3,0c-0.7,0-1.5,0-2.3,0v0.5c0.6,0.1,1.2,0.2,1.7,0.3
	c0.5,0.1,1,0.4,1.5,0.8c0.5,0.3,1,0.8,1.6,1.4c0.6,0.9,3.9,6.4,5.3,8.7L68,9.6z"/>
<path fill="#262626" d="M94.7,31.1c-12.2,5.9-23.9-17.1-24.9-18.8l4.7-6.6c0.8-1.1,1.4-1.9,2-2.6c0.6-0.6,1.1-1.1,1.6-1.5
	c0.5-0.4,1-0.6,1.5-0.8c0.5-0.1,1.1-0.3,1.7-0.3V0c-0.8,0-1.6,0-2.3,0c-0.7,0-1.5,0-2.3,0c-0.4,0-0.8,0-1.1,0c-0.3,0-0.7,0-1,0
	c-0.3,0-0.6,0-1,0c-0.3,0-0.7,0-1.1,0v0.5C74,0.7,74.8,1.2,74.8,2c0,0.4-0.2,0.8-0.5,1.4c-0.3,0.6-0.8,1.2-1.4,2L62.4,19.9
	c-0.8,1-1.4,1.9-1.9,2.5c-0.5,0.6-1,1.1-1.5,1.4c-0.5,0.3-1,0.6-1.5,0.7c-0.5,0.1-1.1,0.2-1.8,0.3v0.5c0.8,0,1.6,0,2.3,0
	c0.7,0,1.5,0,2.3,0c0.4,0,0.8,0,1.1,0c0.3,0,0.6,0,1,0c0.3,0,0.6,0,1,0c0.3,0,0.7,0,1.1,0v-0.5c-0.8-0.1-1.4-0.2-1.8-0.3
	c-0.4-0.1-0.6-0.4-0.6-0.9c0-0.2,0.1-0.5,0.2-0.8c0.1-0.3,0.3-0.6,0.5-0.9c0.2-0.3,0.4-0.7,0.7-1c0.3-0.3,0.5-0.7,0.7-1l3.9-5.5
	c1.5,2.4,13.2,24.2,26.7,17.2L94.7,31.1z"/>
<g>
	<path fill="#262626" d="M110,25.2c-0.5,0-0.9,0-1.2,0c-0.3,0-0.7,0-1,0c-0.3,0-0.7,0-1,0c-0.4,0-0.8,0-1.3,0c-0.5,0-0.9,0-1.2,0
		c-0.3,0-0.6,0-0.9,0c-0.3,0-0.6,0-0.9,0c-0.3,0-0.7,0-1.2,0v-0.6c0.6,0,1-0.1,1.3-0.1c0.3-0.1,0.6-0.2,0.7-0.3
		c0.2-0.1,0.3-0.2,0.3-0.4c0-0.2,0.1-0.4,0.1-0.6c0-0.1,0-0.3-0.1-0.5c-0.1-0.2-0.2-0.6-0.4-1.1c-0.2-0.5-0.5-1.2-0.8-2.2
		c-0.4-0.9-0.9-2.2-1.5-3.8H92c-0.9,2.1-1.6,3.8-2,4.9c-0.4,1.1-0.6,1.9-0.6,2.5c0,0.3,0,0.5,0.1,0.7c0.1,0.2,0.3,0.4,0.5,0.5
		c0.2,0.1,0.6,0.2,1,0.3c0.4,0.1,0.9,0.1,1.5,0.1v0.6c-0.5,0-0.9,0-1.3,0c-0.3,0-0.7,0-1,0c-0.3,0-0.6,0-0.9,0c-0.3,0-0.7,0-1.2,0
		c-0.4,0-0.8,0-1.2,0c-0.4,0-0.7,0-1,0c-0.3,0-0.7,0-1,0c-0.3,0-0.7,0-1.1,0v-0.5c0.9-0.1,1.5-0.3,1.9-0.5c0.4-0.2,0.7-0.5,0.9-0.9
		c0.1-0.2,0.4-0.7,0.8-1.5c0.4-0.8,0.8-1.8,1.4-3c0.5-1.2,1.2-2.6,1.8-4.1c0.7-1.5,1.4-3.1,2.1-4.8c0.7-1.7,1.5-3.4,2.3-5.1
		c0.8-1.7,1.5-3.2,2.3-4.8l0.4,0c0.7,2,1.3,3.6,1.9,5.4c0.6,1.8,1.3,3.5,1.9,5.1c0.6,1.6,1.3,3.3,2,4.9c0.7,1.6,1.3,3.3,2,5
		c0.3,0.7,0.5,1.3,0.8,1.9c0.2,0.5,0.5,1,0.8,1.3c0.3,0.3,0.7,0.6,1.1,0.8c0.4,0.2,0.9,0.3,1.6,0.3V25.2z M92.6,14.1h7.9
		c-0.5-1.2-1-2.6-1.6-4.2c-0.6-1.6-1.3-3.4-2.1-5.5L92.6,14.1z"/>
</g>
<g>
	<path fill="#262626" d="M36,24.5L26.7,6.1l-0.9,14.8c0,0.1,0,0.2,0,0.3c0,0.1,0,0.2,0,0.3c0,1,0.2,1.7,0.7,2.2
		c0.5,0.5,1.3,0.8,2.5,1v0.5c-0.4,0-0.7,0-1.1,0c-0.3,0-0.6,0-0.9,0c-0.3,0-0.6,0-0.9,0c-0.3,0-0.7,0-1.1,0c-0.4,0-0.7,0-1.1,0
		c-0.3,0-0.6,0-0.9,0c-0.3,0-0.6,0-0.9,0c-0.3,0-0.7,0-1.1,0v-0.5c0.5-0.1,0.9-0.2,1.3-0.3c0.4-0.1,0.7-0.3,0.9-0.5
		c0.3-0.2,0.5-0.6,0.6-1.1c0.2-0.5,0.3-1.1,0.3-2l1.6-20.9h0.5l10.4,20.6L46.9,0.1h0.7l1.2,20.9c0,0.8,0.1,1.5,0.3,2
		c0.1,0.5,0.3,0.8,0.6,1.1c0.2,0.2,0.5,0.4,0.9,0.5c0.4,0.1,0.8,0.2,1.2,0.3v0.5c-0.4,0-0.7,0-1.1,0c-0.3,0-0.6,0-0.9,0
		c-0.3,0-0.6,0-0.9,0c-0.3,0-0.7,0-1.1,0c-0.8,0-1.5,0-2.1,0c-0.6,0-1.3,0-2.1,0v-0.5c0.4-0.1,0.8-0.2,1.2-0.3
		c0.4-0.1,0.7-0.2,1-0.4c0.3-0.2,0.5-0.5,0.7-0.9c0.2-0.4,0.2-0.9,0.2-1.6c0-0.1,0-0.2,0-0.3c0-0.1,0-0.2,0-0.3L45.5,5.6l-9.1,18.8
		L36,24.5z"/>
</g>
</svg>
