<?xml version="1.0" encoding="utf-8"?>
<!-- Generator: Adobe Illustrator 18.1.1, SVG Export Plug-In . SVG Version: 6.00 Build 0)  -->
<svg version="1.1" id="Loupe" xmlns="http://www.w3.org/2000/svg" xmlns:xlink="http://www.w3.org/1999/xlink" x="0px" y="0px"
	 viewBox="0 0 33 33" enable-background="new 0 0 33 33" xml:space="preserve">
<g>
	<g>
		<path fill="#231F20" d="M22.5,2c4.7,0,8.5,3.8,8.5,8.5S27.2,19,22.5,19S14,15.2,14,10.5S17.8,2,22.5,2 M22.5,0
			C16.7,0,12,4.7,12,10.5S16.7,21,22.5,21C28.3,21,33,16.3,33,10.5S28.3,0,22.5,0L22.5,0z"/>
	</g>
	<g>
		<g>
			<path fill="#231F20" d="M1.7,32C1.6,32,1,31.7,1,31.3c0-0.4,0.3-0.7,0.6-1l13.1-13.1c0.3-0.3,0.4,0.1,0.7,0.4s0.7,0.4,0.4,0.7
				L2.7,31.4C2.5,31.6,2,32,1.7,32z"/>
			<path fill="#231F20" d="M1.8,33L1.8,33C1.1,33,0,32.3,0,31.3c0-0.8,0.5-1.3,0.8-1.7L14,16.6c0.3-0.3,0.7-0.4,0.9-0.4
				c0.6,0,0.9,0.4,1.1,0.6c0,0,0.1,0.1,0.1,0.1s0.1,0.1,0.1,0.1c0.2,0.2,0.6,0.4,0.6,1c0,0.2,0,0.6-0.4,1L3.4,32.1
				C3.3,32.2,2.5,33,1.8,33L1.8,33z"/>
		</g>
	</g>
	<g>
		<path fill="#231F20" d="M27.3,27h-5c-0.6,0-1-0.4-1-1s0.4-1,1-1h5c0.6,0,1,0.4,1,1S27.8,27,27.3,27z"/>
	</g>
</g>
</svg>
