<?xml version="1.0" encoding="utf-8"?>
<!-- Generator: Adobe Illustrator 18.1.1, SVG Export Plug-In . SVG Version: 6.00 Build 0)  -->
<svg version="1.1" id="Talk" xmlns="http://www.w3.org/2000/svg" xmlns:xlink="http://www.w3.org/1999/xlink" x="0px" y="0px"
	 viewBox="0 0 47.2 32" enable-background="new 0 0 47.2 32" xml:space="preserve">
<g>
	<path fill="#262626" d="M11.4,24.8c4.4,4.4-8.2,7.2-8.2,7.2s6.9-4.5,6.2-7.5C9.2,23.7,8.2,21.6,11.4,24.8z"/>
	<path fill="#262626" d="M32,15.2c-4.4,4.4,8.2,7.2,8.2,7.2S34.3,19.1,34,15C33.9,14.1,35.2,12.1,32,15.2z"/>
	<path fill="#262626" d="M47.2,8.8c0,4.6-7,8.4-16,8.8c-0.7-4-7.5-7.2-15.7-7.2c-1.1,0-2.2,0.1-3.2,0.2C12,10,11.9,9.4,11.9,8.8
		c0-4.9,7.9-8.8,17.7-8.8S47.2,3.9,47.2,8.8z"/>
	<path fill="#262626" d="M29.4,19.8c0,3-3.6,5.6-8.8,6.7c-1.8,0.4-3.8,0.6-5.9,0.6c-7,0-12.8-2.4-14.3-5.7C0.1,21,0,20.4,0,19.8
		c0-3.8,5.6-6.8,12.9-7.3c0.6,0,1.2-0.1,1.8-0.1c7.1,0,13.1,2.5,14.4,5.9C29.3,18.8,29.4,19.3,29.4,19.8z"/>
</g>
</svg>
