<?xml version="1.0" encoding="utf-8"?>
<!-- Generator: Adobe Illustrator 18.1.1, SVG Export Plug-In . SVG Version: 6.00 Build 0)  -->
<svg version="1.1" id="BigData_x5F_w" xmlns="http://www.w3.org/2000/svg" xmlns:xlink="http://www.w3.org/1999/xlink" x="0px" y="0px" viewBox="0 0 128 128" enable-background="new 0 0 128 128" xml:space="preserve"><g><path fill="#FAFAFA" d="M8.5,60.9V4.8h11.6C24,4.8,27,6.1,29,8.7c2,2.6,3,6.4,3,11.5c0,2.9-0.4,5.3-1.3,7.4c-0.8,2.1-2,3.6-3.4,4.5c1.7,0.7,3,2.2,3.9,4.3c0.9,2.2,1.4,4.8,1.4,8c0,5.4-1,9.6-3,12.3c-2,2.8-4.9,4.2-8.7,4.2H8.5z M16.1,28.2H20c3,0,4.4-2.3,4.4-6.9c0-2.5-0.3-4.4-1-5.5c-0.7-1.1-1.8-1.7-3.3-1.7h-4V28.2z M16.1,36.5v15h4.8c1.4,0,2.4-0.6,3.1-1.9c0.7-1.3,1.1-3,1.1-5.4c0-5-1.2-7.6-3.6-7.7H16.1z"/><path fill="#FAFAFA" d="M45.9,60.9h-7.6V4.8h7.6V60.9z"/><path fill="#FAFAFA" d="M77.7,54.5c-1.5,2.4-3.2,4.1-5.4,5.3c-2.1,1.2-4.4,1.8-6.9,1.8c-4.3,0-7.6-2-10-6c-2.4-4-3.6-9.8-3.7-17.4V28.1c0-7.7,1.1-13.7,3.4-17.9C57.4,6.1,60.6,4,65,4c4.1,0,7.1,1.5,9.2,4.5c2.1,3,3.3,7.7,3.6,14.1h-7.3c-0.2-3.6-0.7-6-1.5-7.3c-0.8-1.3-2-1.9-3.7-1.9c-2,0-3.5,1.1-4.4,3.4c-0.9,2.2-1.4,5.8-1.4,10.7v10.2c0,5.1,0.5,8.8,1.5,11.2c1,2.3,2.7,3.5,5,3.5c1.5,0,2.7-0.4,3.6-1.3l0.7-0.7V39.9h-5.3v-8.6h12.9V54.5z"/><path fill="#FAFAFA" d="M8.5,124V67.9h9.9c4.4,0,7.8,2.1,10.4,6.2c2.6,4.2,3.9,9.9,4,17.1v9.1c0,7.4-1.3,13.2-3.9,17.4c-2.6,4.2-6.2,6.3-10.7,6.3H8.5z M16.1,77.3v37.3h2.3c2.5,0,4.3-1,5.3-3c1-2,1.6-5.4,1.6-10.3v-9.7c0-5.2-0.5-8.9-1.5-11c-1-2.1-2.6-3.2-5-3.3H16.1z"/><path fill="#FAFAFA" d="M55.6,112.5H45.3l-2,11.5h-8L47,67.9h6.9L65.6,124h-8.1L55.6,112.5z M46.9,103.1h7l-3.5-20L46.9,103.1z"/><path fill="#FAFAFA" d="M90.3,77.3H81V124h-7.6V77.3h-9.1v-9.4h25.9V77.3z"/><path fill="#FAFAFA" d="M109.4,112.5H99.1l-2,11.5h-8l11.7-56.1h6.9l11.8,56.1h-8.1L109.4,112.5z M100.7,103.1h7l-3.5-20L100.7,103.1z"/></g><path fill="#FAFAFA" d="M126,2v124H2V2H126 M128,0H0v128h128V0L128,0z"/></svg>
