<?xml version="1.0" encoding="utf-8"?>
<!-- Generator: Adobe Illustrator 18.1.1, SVG Export Plug-In . SVG Version: 6.00 Build 0)  -->
<svg version="1.1" id="Cloud_x5F_w" xmlns="http://www.w3.org/2000/svg" xmlns:xlink="http://www.w3.org/1999/xlink" x="0px" y="0px" viewBox="0 0 128 128" enable-background="new 0 0 128 128" xml:space="preserve"><g><g><g><path fill="#FAFAFA" d="M99.6,25c-1.9-2.1-4.4-3.6-7-4.5c-1-7.7-7.7-13.7-15.7-13.7c-0.7,0-1.4,0-2,0.1C70.9,2.5,65.3,0,59.4,0C54.1,0,49,2,45.1,5.6c-3,2.8-5.1,6.3-6,10.2C30.5,17.5,24,25,24,34.1c0,10.2,8.3,18.6,18.6,18.6h44.9c9.1,0,16.5-7.4,16.5-16.5C104,32,102.5,28,99.6,25L99.6,25z M99.6,25"/></g></g></g><g><rect x="35.5" y="50" transform="matrix(0.902 0.4317 -0.4317 0.902 32.2951 -9.2233)" fill="#FAFAFA" width="2" height="33"/></g><g><path fill="#FAFAFA" d="M127.9,125l-3.4-13.7c-0.1-0.2-0.1-0.4-0.2-0.6c0.2-0.5,0.3-1.1,0.3-1.7V86.5c0-2.8-2.3-5.1-5.1-5.1H81.6c-2.8,0-5.1,2.3-5.1,5.1V109c0,0.6,0.1,1.2,0.3,1.7c-0.1,0.2-0.2,0.4-0.2,0.6l-3.4,13.8c-0.2,0.7,0,1.4,0.4,2c0.4,0.6,1.1,0.9,1.8,0.9h50.4c1.3,0,2.3-1,2.3-2.3C128,125.5,128,125.2,127.9,125L127.9,125z M106.3,124.4C106.3,124.4,106.3,124.4,106.3,124.4H94.7c-0.1,0-0.3-0.1-0.3-0.2c-0.1-0.1-0.1-0.2-0.1-0.4l0.9-5c0-0.2,0.2-0.4,0.4-0.4h9.8c0.2,0,0.4,0.2,0.4,0.4l0.9,5c0,0,0,0.1,0,0.1C106.8,124.2,106.6,124.4,106.3,124.4L106.3,124.4z M120.1,109c0,0.3-0.2,0.5-0.4,0.6H81.3c-0.2-0.1-0.4-0.3-0.4-0.6V86.5c0-0.4,0.3-0.6,0.6-0.6h37.8c0.4,0,0.6,0.3,0.6,0.6V109z M120.1,109"/></g><g><path fill="#FAFAFA" d="M56.7,122.4H35.2c-0.2,0-0.4,0.2-0.4,0.4v0c0,0.9-0.7,1.6-1.6,1.6h-8.1c-0.9,0-1.6-0.7-1.6-1.6v0c0-0.2-0.2-0.4-0.4-0.4H1.6c-0.9,0-1.6,0.7-1.6,1.6v2.4c0,0.9,0.7,1.6,1.6,1.6h55.2c0.9,0,1.6-0.7,1.6-1.6V124C58.3,123.1,57.6,122.4,56.7,122.4L56.7,122.4z M53.4,125.2c0,0.4-0.3,0.8-0.8,0.8h-3.4c-0.4,0-0.8-0.3-0.8-0.8v0c0-0.4,0.3-0.8,0.8-0.8h3.4C53.1,124.4,53.4,124.8,53.4,125.2L53.4,125.2z M53.4,125.2"/></g><g><path fill="#FAFAFA" d="M53.2,81.1H5.5c-3,0-5.5,2.5-5.5,5.5v28.1c0,3,2.5,5.5,5.5,5.5h47.7c3,0,5.5-2.5,5.5-5.5V86.6C58.7,83.6,56.2,81.1,53.2,81.1L53.2,81.1z M54,114.7c0,0.4-0.4,0.8-0.8,0.8H5.5c-0.4,0-0.8-0.4-0.8-0.8V86.6c0-0.4,0.4-0.8,0.8-0.8h47.7c0.4,0,0.8,0.4,0.8,0.8V114.7z M54,114.7"/></g><g>		<rect x="76.9" y="66" transform="matrix(0.4388 0.8986 -0.8986 0.4388 112.9814 -46.8462)" fill="#FAFAFA" width="34.2" height="2"/></g></svg>
