<?xml version="1.0" encoding="utf-8"?>
<!-- Generator: Adobe Illustrator 18.1.1, SVG Export Plug-In . SVG Version: 6.00 Build 0)  -->
<svg version="1.1" id="DataCentre_x5F_w" xmlns="http://www.w3.org/2000/svg" xmlns:xlink="http://www.w3.org/1999/xlink" x="0px" y="0px" viewBox="0 0 128 128" enable-background="new 0 0 128 128" xml:space="preserve"><g><path fill="#FAFAFA" d="M64,0C36.2,0,14.4,9.8,14.4,22.3c0,7.9,22.1,17.3,49.6,17.3c22.7,0,42.7-6.2,49.6-12.8v-4.6C113.6,9.8,91.8,0,64,0L64,0z"/><path fill="#FAFAFA" d="M14.4,37.9v13.1c0,7.9,22.1,17.3,49.6,17.3c22.7,0,42.7-6.2,49.6-12.8V39.4C103,46.5,82.7,50.9,64,50.9C44.4,50.9,23.7,45.9,14.4,37.9L14.4,37.9z"/><path fill="#FAFAFA" d="M14.4,66.5v13.1c0,7.9,22.1,17.3,49.6,17.3c22.7,0,42.7-6.2,49.6-12.8V68C103,75.1,82.7,79.6,64,79.6C44.4,79.6,23.7,74.6,14.4,66.5L14.4,66.5z"/><path fill="#FAFAFA" d="M14.4,95.1v10.6c0,12.5,21.8,22.3,49.6,22.3c27.8,0,49.6-9.8,49.6-22.3v-9.1c-10.6,7.1-30.8,11.5-49.6,11.5C44.4,108.2,23.7,103.2,14.4,95.1L14.4,95.1z"/><path fill="#FAFAFA" d="M14.4,85.6"/></g></svg>
