<?xml version="1.0" encoding="utf-8"?>
<!-- Generator: Adobe Illustrator 18.1.1, SVG Export Plug-In . SVG Version: 6.00 Build 0)  -->
<svg version="1.1" id="Devops_x5F_w" xmlns="http://www.w3.org/2000/svg" xmlns:xlink="http://www.w3.org/1999/xlink" x="0px"
	 y="0px" viewBox="0 0 128 128" enable-background="new 0 0 128 128" xml:space="preserve">
<path fill="#FAFAFA" d="M76.3,13.3c1.2,0,2.5,0.1,3.8,0.4c4.5,0.9,8.3,3.1,10.9,6.2c3.4,0,7,1.1,10.4,3.2c4.8,3,7.9,7.4,8.8,11.9
	c5.4,1.7,9.4,5.7,10.2,10.6c1.7,1.7,3.1,3.8,4.2,6.3c1.8,4.2,2,8.6,0.9,12.4c1.7,7.4-1.2,14.7-7.2,17.3c-0.4,0.2-0.8,0.3-1.2,0.4
	c0.5,1.5,0.8,3.1,0.8,4.7c0.1,9.5-9.2,17.2-20.7,17.3c0,0,0,0,0,0c-0.5,0-1,0-1.5,0c-0.9,2.3-3.2,2.6-4.3,2.6c-0.3,0-0.5,0-0.5,0
	s-0.2,3.5,2.2,8.4c-0.1,0-0.2,0-0.3,0c-3.8,0-18-14.6-21.4-15.8c-4.7-1.7-5.8-7-6.1-8.9c-3,2.4-8,4.5-12.5,4.9
	c-1.3,0.1-2.5,0.2-3.7,0.2c-17.1,0-20.5-11.6-21.5-13.6c-1.6,0.4-3.1,0.7-4.6,0.7c-4,0-7.8-1.6-10.1-4.6c-0.5-0.6-0.9-1.2-1.2-1.9
	c-2.2-0.7-4.1-2-5.5-3.9c-1.9-2.5-2.7-5.6-2.3-8.7c-2.6-4.6-2.5-11,0.8-16.7c1.4-2.5,3.3-4.5,5.3-6c0.4-1.2,1-2.4,1.7-3.6
	c2.9-5.1,7.5-8.4,12.1-9.4c2.7-3.2,6.7-6,11.5-7.8c3.6-1.3,7.1-2,10.4-2c0.2,0,0.4,0,0.6,0c2.6-1.8,5.9-3.1,9.5-3.3
	c0.5,0,1.1-0.1,1.6-0.1c3.2,0,6.2,0.7,8.7,2.1C68.9,14.4,72.5,13.3,76.3,13.3 M76.3,11.3c-3.8,0-7.4,1-10.3,2.8
	c-2.6-1.2-5.5-1.8-8.6-1.8c-0.6,0-1.1,0-1.7,0.1c-3.7,0.3-7.1,1.4-10,3.3c0,0,0,0,0,0c-3.6,0-7.5,0.7-11.1,2.1
	c-4.7,1.8-8.9,4.5-11.9,7.8c-5.1,1.3-9.8,5-12.8,10.2c-0.6,1.1-1.2,2.2-1.6,3.4c-2.1,1.6-4,3.8-5.4,6.2c-3.4,5.9-3.8,12.8-1.1,18.1
	c-0.2,3.5,0.7,6.9,2.8,9.5c1.4,1.9,3.4,3.3,5.6,4.3c0.3,0.5,0.6,1,1,1.5c2.7,3.4,6.9,5.4,11.7,5.4c1.2,0,2.4-0.1,3.5-0.3
	C28.2,87.7,33.3,97,49,97c1.2,0,2.5-0.1,3.8-0.2c3.7-0.3,7.9-1.7,11.1-3.7c0.9,2.7,2.7,6.1,6.7,7.6c1.1,0.4,4.9,3.6,7.9,6.3
	c7.6,6.6,11.5,9.7,14.1,9.7c0.3,0,0.5,0,0.7-0.1c0.6-0.1,1-0.5,1.3-1.1c0.2-0.5,0.2-1.1,0-1.7c-1.2-2.4-1.7-4.4-1.9-5.7
	c1.6-0.3,2.9-1.2,3.8-2.4c0.1,0,0.2,0,0.4,0c0,0,0.1,0,0.1,0c6,0,11.7-2,15.9-5.6c4.4-3.6,6.8-8.5,6.7-13.7c0-1.2-0.1-2.4-0.4-3.5
	c6.3-3,9.7-10.7,8-18.8c1.1-4.2,0.7-8.9-1.1-13.2c-1-2.4-2.4-4.6-4.2-6.4c-1-5-4.9-9.1-10.4-11.2c-1.3-4.7-4.7-9.1-9.4-12
	c-3.3-2.1-6.9-3.3-10.5-3.5c-2.9-3.1-6.9-5.3-11.4-6.2C79.1,11.5,77.7,11.3,76.3,11.3L76.3,11.3z"/>
<path fill="#FAFAFA" d="M60.2,62.4c1.5-1,2.9-2.1,4.1-3.5l4.3,2.5l3.9-6.8l-4.3-2.5c0.5-1.7,0.9-3.5,0.9-5.3l4.9-0.9l-1.4-7.8
	l-4.9,0.9c-0.7-1.7-1.6-3.2-2.7-4.6l3.2-3.8l-6-5.1l-3.2,3.8c-1.6-0.8-3.3-1.5-5-1.8v-5h-7.9v5c-1.8,0.4-3.5,1-5,1.8L38,25.6l-6,5.1
	l3.2,3.8c-1.1,1.4-2,3-2.7,4.6l-4.9-0.9L26.2,46l4.9,0.9c0.1,1.8,0.4,3.6,0.9,5.3l-4.3,2.5l3.9,6.8L36,59c1.2,1.3,2.6,2.5,4.1,3.5
	l-1.7,4.7l7.4,2.7l1.7-4.7c0.9,0.1,1.8,0.2,2.7,0.2c0.9,0,1.8-0.1,2.7-0.2l1.7,4.7l7.4-2.7L60.2,62.4z M50.2,56.3
	c-5.5,0-10.1-4.5-10.1-10.1c0-5.5,4.5-10.1,10.1-10.1c5.5,0,10.1,4.5,10.1,10.1C60.2,51.8,55.7,56.3,50.2,56.3L50.2,56.3z
	 M50.2,56.3"/>
<path fill="#FAFAFA" d="M94.1,68.4l-3.4,1.1c-0.6-1.1-1.4-2.1-2.4-3l1.9-3l-4.8-3l-1.9,3c-1.2-0.4-2.5-0.7-3.8-0.8l-0.5-3.5
	l-5.6,0.8l0.5,3.5c-1.2,0.4-2.4,1.1-3.4,1.8l-2.6-2.4L64.4,67l2.7,2.4c-0.6,1.1-1.1,2.3-1.4,3.6L62,72.8l-0.2,5.6l3.6,0.1
	c0.2,1.3,0.6,2.5,1.2,3.7l-2.8,2.2l3.5,4.4l2.8-2.2c1,0.8,2.1,1.5,3.3,2l-0.7,3.5l5.5,1.2l0.7-3.5c0.6,0,1.3,0,1.9-0.1
	c0.6-0.1,1.3-0.2,1.9-0.4l1.7,3.2l5-2.6l-1.7-3.2c1-0.8,1.9-1.8,2.6-2.9l3.3,1.3l2.1-5.2l-3.3-1.3c0.2-1.2,0.3-2.5,0.1-3.8l3.4-1.1
	L94.1,68.4z M79.8,83.4c-3.9,0.5-7.6-2.2-8.1-6.1c-0.5-3.9,2.2-7.6,6.1-8.1c3.9-0.5,7.6,2.2,8.1,6.1C86.5,79.2,83.8,82.8,79.8,83.4
	L79.8,83.4z M79.8,83.4"/>
<path fill="#FAFAFA" d="M110.2,64.1l-1.7-0.3c0-0.6-0.1-1.2-0.3-1.8l1.5-0.9l-1.4-2.4l-1.5,0.9c-0.4-0.5-0.9-0.9-1.4-1.2l0.6-1.6
	l-2.6-0.9l-0.6,1.6c-0.6-0.1-1.3-0.1-1.9,0l-0.6-1.6l-2.6,0.9l0.6,1.6c-0.5,0.3-1,0.7-1.4,1.2l-1.5-0.9L94,61.1l1.5,0.9
	c-0.2,0.6-0.3,1.2-0.3,1.8l-1.7,0.3l0.5,2.7l1.7-0.3c0.2,0.6,0.5,1.1,0.9,1.6l-1.1,1.3l2.1,1.8l1.1-1.3c0.3,0.1,0.6,0.3,0.9,0.4
	c0.3,0.1,0.6,0.2,0.9,0.3l0,1.7l2.7,0l0-1.7c0.6-0.1,1.2-0.3,1.8-0.6l1.1,1.3l2.1-1.8l-1.1-1.3c0.4-0.5,0.7-1,0.9-1.6l1.7,0.3
	L110.2,64.1z M100.6,67.3c-1.8-0.7-2.7-2.7-2.1-4.5c0.7-1.8,2.7-2.7,4.5-2.1c1.8,0.7,2.7,2.7,2.1,4.5C104.5,67,102.4,68,100.6,67.3
	L100.6,67.3z M100.6,67.3"/>
<path fill="#FAFAFA" d="M59.5,76.6l-2.1,0.5c-0.3-0.7-0.8-1.4-1.3-2l1.3-1.7l-2.7-2.1L53.4,73c-0.7-0.3-1.5-0.6-2.2-0.7l-0.1-2.2
	l-3.4,0.2l0.1,2.2c-0.8,0.2-1.5,0.5-2.2,0.9l-1.5-1.6l-2.5,2.3l1.5,1.6c-0.4,0.6-0.8,1.3-1.1,2.1l-2.2-0.3L39.4,81l2.2,0.3
	c0.1,0.8,0.2,1.6,0.5,2.3l-1.8,1.2l1.9,2.9l1.8-1.2c0.6,0.6,1.2,1,1.9,1.4l-0.6,2.1l3.3,1l0.6-2.1c0.4,0,0.8,0,1.2,0
	c0.4,0,0.8-0.1,1.2-0.1l0.8,2l3.2-1.3l-0.8-2c0.6-0.4,1.2-1,1.7-1.6l1.9,1l1.6-3.1l-1.9-1c0.2-0.7,0.3-1.5,0.3-2.3l2.1-0.5
	L59.5,76.6z M50.1,84.9c-2.4,0.1-4.5-1.7-4.6-4.2c-0.1-2.4,1.7-4.5,4.2-4.6c2.4-0.1,4.5,1.7,4.6,4.2C54.4,82.8,52.5,84.8,50.1,84.9
	L50.1,84.9z M50.1,84.9"/>
<path fill="#FAFAFA" d="M101.7,48.8l0.1-4.4L99,44.3c-0.2-1-0.5-2-1-2.9l2.2-1.7l-2.8-3.5l-2.2,1.7c-0.8-0.7-1.7-1.2-2.6-1.6
	l0.6-2.8l-4.4-0.9l-0.6,2.8c-1,0-2,0.1-3,0.4L84,33.4l-3.9,2.1l1.3,2.5c-0.8,0.7-1.5,1.4-2,2.3l-2.6-1l-1.6,4.1l2.6,1
	c-0.2,1-0.2,2-0.1,3L75,48.3l1.4,4.2l2.7-0.9c0.5,0.9,1.2,1.7,1.9,2.4l-1.5,2.4l3.8,2.3l1.5-2.4c1,0.3,2,0.6,3,0.6l0.4,2.8l4.4-0.6
	l-0.4-2.8c0.5-0.2,0.9-0.4,1.4-0.6c0.5-0.2,0.9-0.5,1.3-0.8l2.1,1.9l3-3.3l-2.1-1.9c0.5-0.9,0.9-1.8,1.1-2.8L101.7,48.8z M91.1,51.2
	c-2.8,1.5-6.2,0.5-7.7-2.3c-1.5-2.8-0.4-6.2,2.3-7.7c2.8-1.5,6.2-0.4,7.7,2.3C94.9,46.3,93.8,49.7,91.1,51.2L91.1,51.2z M91.1,51.2"
	/>
</svg>
