<?xml version="1.0" encoding="utf-8"?>
<!-- Generator: Adobe Illustrator 18.1.1, SVG Export Plug-In . SVG Version: 6.00 Build 0)  -->
<svg version="1.1" id="ERP_x5F_w" xmlns="http://www.w3.org/2000/svg" xmlns:xlink="http://www.w3.org/1999/xlink" x="0px" y="0px" viewBox="0 0 128 128" enable-background="new 0 0 128 128" xml:space="preserve"><path fill="#FAFAFA" d="M65.6,18c0.4-0.6,0.5-1.5,0.5-2.5c0-2.3-0.7-3.5-2.1-3.5h-2v7h1.9C64.6,19,65.2,18.6,65.6,18z"/><path fill="#FAFAFA" d="M80.1,18.2c0.4-0.6,0.6-1.4,0.6-2.4c0-1.1-0.2-2.1-0.6-2.7c-0.4-0.7-0.9-1.1-1.6-1.1H76v7h2.4C79.1,19,79.7,18.8,80.1,18.2z"/><path fill="#FAFAFA" d="M64,36.3c7.3,0,13.9,2.8,18.8,7.4L108.5,18C97,6.9,81.3,0,64,0S31,6.9,19.5,18l25.7,25.7C50.1,39.1,56.7,36.3,64,36.3z M72,8h6.4c1.8,0,3.2,0.9,4.3,2.2c1.1,1.4,1.6,3.3,1.6,5.5c0,2.2-0.5,4-1.6,5.3c-1.1,1.3-2.5,2-4.4,2H76v8h-4V8z M58,8h6c1.8,0,3.2,0.8,4.2,1.9c1,1.2,1.5,3,1.5,5.1c0,3-1,5.1-2.8,6.3l3,9.3V31h-3.6l-2.7-8H62v8h-4V8z M46,8h10v4h-7v5h6v4h-6v6h7v4H46V8z"/><path fill="#FAFAFA" d="M110,64h-3c-0.2,0-0.4,0.2-0.4,0.4l1.2,2.6h1.4l1.2-2.6C110.5,64.2,110.3,64,110,64z"/><path fill="#FAFAFA" d="M109.1,67h-1.2c0,0-0.1-0.1-0.1-0.1l-0.6,8.8c0,0,0,0,0,0l1.2,2c0,0,0,0.2,0.1,0.2h0c0,0,0.1-0.2,0.1-0.3l1.2-1.9c0,0,0-0.1,0-0.1L109.1,67C109.2,66.9,109.2,67,109.1,67z"/><path fill="#FAFAFA" d="M110,19.5L84.3,45.2c4.6,4.9,7.4,11.5,7.4,18.8s-2.8,13.9-7.4,18.8l25.7,25.7C121.1,97,128,81.3,128,64C128,46.7,121.1,31,110,19.5z M108.5,47.9c3.8,0,6.8,3.1,6.8,6.8c0,3.8-3.1,6.8-6.8,6.8c-3.8,0-6.8-3.1-6.8-6.8C101.7,50.9,104.7,47.9,108.5,47.9z M120.1,78l-0.5,0.1c-0.2,0.1-4,1.9-10.4,1.9c-3.3,0-7.3-0.5-11.9-1.9l-0.4-0.2l0.1-0.1v-7.1c0-4.8,3.8-8.7,8.6-8.7h5.8c4.8,0,8.6,3.9,8.6,8.7L120.1,78L120.1,78z"/><path fill="#FAFAFA" d="M82.8,84.3c-4.9,4.6-11.5,7.4-18.8,7.4s-13.9-2.8-18.8-7.4L19.5,110C31,121.1,46.7,128,64,128s33-6.9,44.5-18L82.8,84.3z M63.8,125.1c-7.8,0-14.1-6.3-14.1-14.1c0-3.8,1.5-7.3,4.2-10c0.2-0.2,0.4-0.2,0.6-0.2c0.2,0,0.4-0.1,0.6,0.1l8.6,10.1H77c0.2,0,0.4,0.3,0.6,0.4c0.1,0.2,0.2,0.5,0.2,0.7C77.2,119.3,71,125.1,63.8,125.1z M77.5,109H64.8c-0.2,0-0.4-0.3-0.6-0.5l-8.1-8.9c-0.1-0.2-0.2-0.4-0.2-0.6c0-0.2,0.1-0.4,0.3-0.6c2.4-1.6,5.1-2.5,8-2.5c7.2,0,13.4,5.7,14,13C78.3,109.1,77.5,109,77.5,109z"/><rect x="17" y="72" fill="#FAFAFA" width="5" height="2"/><path fill="#FAFAFA" d="M36.3,64c0-7.3,2.8-13.9,7.4-18.8L18,19.5C6.9,31,0,46.7,0,64c0,17.3,6.9,33,18,44.5l25.7-25.7C39.1,77.9,36.3,71.3,36.3,64z M32,70.3c0,1.1-0.5,1.7-1.6,1.7H23v2h1.5c0.4,0,0.8,0.6,0.8,1c0,0.4-0.4,1-0.8,1h-10c-0.4,0-0.8-0.6-0.8-1c0-0.4,0.4-1,0.8-1H16v-2H8.6C7.6,72,7,71.3,7,70.3V54.1C7,53.1,7.6,52,8.6,52h21.8c1.1,0,1.6,1.1,1.6,2.1V70.3z"/></svg>
