<?xml version="1.0" encoding="utf-8"?>
<!-- Generator: Adobe Illustrator 18.1.1, SVG Export Plug-In . SVG Version: 6.00 Build 0)  -->
<svg version="1.1" id="IoT_x5F_w" xmlns="http://www.w3.org/2000/svg" xmlns:xlink="http://www.w3.org/1999/xlink" x="0px" y="0px"
	 viewBox="0 0 128 128" enable-background="new 0 0 128 128" xml:space="preserve">
<g>
	<path fill="#FAFAFA" d="M64.3,38.5c-13.8,0-25,11.2-25,25s11.2,25,25,25c13.8,0,25-11.2,25-25S78.1,38.5,64.3,38.5z M64.3,87.5
		c-13.2,0-24-10.8-24-24c0-13.2,10.8-24,24-24c13.2,0,24,10.8,24,24C88.3,76.7,77.6,87.5,64.3,87.5z"/>
	<path fill="#FAFAFA" d="M64.3,37.5c-14.3,0-26,11.7-26,26c0,14.3,11.7,26,26,26c14.3,0,26-11.7,26-26
		C90.3,49.2,78.7,37.5,64.3,37.5z M64.3,87.5c-13.2,0-24-10.8-24-24c0-13.2,10.8-24,24-24c13.2,0,24,10.8,24,24
		C88.3,76.7,77.6,87.5,64.3,87.5z"/>
</g>
<g>
	
		<rect x="85.5" y="18.5" transform="matrix(0.7384 0.6744 -0.6744 0.7384 44.2488 -49.923)" fill="#FAFAFA" width="2" height="27.2"/>
</g>
<g>
	
		<rect x="73.9" y="92.5" transform="matrix(0.4508 0.8926 -0.8926 0.4508 130.9065 -25.7355)" fill="#FAFAFA" width="25" height="2"/>
</g>
<g>
	
		<rect x="89.3" y="63.4" transform="matrix(0.9889 0.1483 -0.1483 0.9889 10.6076 -13.4434)" fill="#FAFAFA" width="12.4" height="2"/>
</g>
<g>
	
		<rect x="26.2" y="37.6" transform="matrix(0.5213 0.8533 -0.8533 0.5213 51.161 -13.9822)" fill="#FAFAFA" width="23.6" height="2"/>
</g>
<g>
	
		<rect x="32.3" y="68.9" transform="matrix(0.2026 0.9793 -0.9793 0.2026 104.1608 30.6122)" fill="#FAFAFA" width="2" height="20.7"/>
</g>
<g>
	<g>
		<path fill="#FAFAFA" d="M105.7,27c-7.4,0-13.5-6.1-13.5-13.5S98.2,0,105.7,0s13.5,6.1,13.5,13.5S113.1,27,105.7,27z M105.7,2
			c-6.3,0-11.5,5.2-11.5,11.5S99.3,25,105.7,25s11.5-5.2,11.5-11.5S112,2,105.7,2z"/>
	</g>
</g>
<g>
	<g>
		<path fill="#FAFAFA" d="M114.5,78.5c-7.4,0-13.5-6.1-13.5-13.5c0-7.4,6.1-13.5,13.5-13.5S128,57.6,128,65
			C128,72.4,121.9,78.5,114.5,78.5z M114.5,53.5c-6.3,0-11.5,5.2-11.5,11.5c0,6.3,5.2,11.5,11.5,11.5S126,71.3,126,65
			C126,58.7,120.8,53.5,114.5,53.5z"/>
	</g>
</g>
<g>
	<g>
		<path fill="#FAFAFA" d="M99.7,128c-7.4,0-13.5-6.1-13.5-13.5S92.2,101,99.7,101s13.5,6.1,13.5,13.5S107.1,128,99.7,128z M99.7,103
			c-6.3,0-11.5,5.2-11.5,11.5S93.3,126,99.7,126s11.5-5.2,11.5-11.5S106,103,99.7,103z"/>
	</g>
</g>
<g>
	<g>
		<path fill="#FAFAFA" d="M12.9,100.3C5.8,100.3,0,94.5,0,87.4s5.8-12.9,12.9-12.9s12.9,5.8,12.9,12.9S20,100.3,12.9,100.3z
			 M12.9,76.5C6.9,76.5,2,81.4,2,87.4s4.9,10.9,10.9,10.9s10.9-4.9,10.9-10.9S18.9,76.5,12.9,76.5z"/>
	</g>
</g>
<g>
	<g>
		<path fill="#FAFAFA" d="M22.2,33.1c-8.8,0-16-7.2-16-16s7.2-16,16-16s16,7.2,16,16S31,33.1,22.2,33.1z M22.2,3.1
			c-7.7,0-14,6.3-14,14s6.3,14,14,14s14-6.3,14-14S29.9,3.1,22.2,3.1z"/>
	</g>
</g>
<g>
	<path fill="#FAFAFA" d="M71.5,70.6c-0.3,0-0.5-0.1-0.7-0.3c-1.7-2.1-4.3-3.3-7-3.3c-2.6,0-5.2,1.1-6.9,3.1
		c-0.3,0.4-0.9,0.4-1.3,0.1c-0.4-0.3-0.4-0.9-0.1-1.3c2.1-2.4,5.1-3.8,8.2-3.8c3.3,0,6.3,1.4,8.4,4c0.3,0.4,0.3,0.9-0.1,1.2
		C71.9,70.5,71.7,70.6,71.5,70.6L71.5,70.6z M71.5,70.6"/>
</g>
<g>
	<path fill="#FAFAFA" d="M76.8,64.4c-0.2,0-0.5-0.1-0.7-0.3c-3.1-3.5-7.6-5.5-12.4-5.5c-4.6,0-9.1,1.9-12.2,5.3
		c-0.3,0.4-0.9,0.4-1.3,0.1c-0.4-0.3-0.4-0.9-0.1-1.3c3.5-3.8,8.4-5.9,13.5-5.9c5.2,0,10.2,2.2,13.7,6.1c0.3,0.4,0.3,0.9-0.1,1.3
		C77.3,64.3,77.1,64.4,76.8,64.4L76.8,64.4z M76.8,64.4"/>
</g>
<g>
	<path fill="#FAFAFA" d="M81.8,58.6c-0.2,0-0.5-0.1-0.7-0.3c-4.4-4.8-10.8-7.6-17.3-7.6c-6.5,0-12.6,2.6-17.1,7.4
		c-0.3,0.4-0.9,0.4-1.3,0c-0.4-0.3-0.4-0.9,0-1.3c4.8-5.1,11.4-7.9,18.4-7.9c7,0,13.8,3,18.6,8.1c0.3,0.4,0.3,0.9-0.1,1.3
		C82.2,58.5,82,58.6,81.8,58.6L81.8,58.6z M81.8,58.6"/>
</g>
<g>
	<path fill="#FAFAFA" d="M63.9,78.7c-1.8,0-3.2-1.5-3.2-3.2c0-1.8,1.5-3.2,3.2-3.2c1.8,0,3.2,1.5,3.2,3.2
		C67.2,77.2,65.7,78.7,63.9,78.7L63.9,78.7z M63.9,74c-0.8,0-1.5,0.7-1.5,1.5c0,0.8,0.7,1.5,1.5,1.5c0.8,0,1.5-0.7,1.5-1.5
		C65.4,74.6,64.7,74,63.9,74L63.9,74z M63.9,74"/>
</g>
<g>
	<g>
		<path fill="#FAFAFA" d="M32.3,14.6L32.3,14.6L30,9.3c-0.2-0.4-0.5-0.6-0.9-0.6H15.3c-0.4,0-0.8,0.2-0.9,0.6l-2.3,5.3H12
			c-0.6,0-1,0.4-1,1v6c0,0.6,0.4,1,1,1h0.4v1.9c0,0.6,0.4,1,1,1h2.4c0.5,0,1-0.4,1-1v-1.9h10.8v1.9c0,0.6,0.4,1,1,1H31
			c0.6,0,1-0.4,1-1v-1.9h0.4c0.6,0,1-0.4,1-1v-6C33.3,15.1,32.9,14.6,32.3,14.6L32.3,14.6z M15.9,10.7h12.5l1.7,3.9H14.2L15.9,10.7z
			 M15.3,20.6c-1.1,0-2-0.9-2-2c0-1.1,0.9-2,2-2c1.1,0,2,0.9,2,2C17.3,19.7,16.4,20.6,15.3,20.6L15.3,20.6z M29,20.6
			c-1.1,0-2-0.9-2-2c0-1.1,0.9-2,2-2c1.1,0,2,0.9,2,2C30.9,19.7,30.1,20.6,29,20.6L29,20.6z M29,20.6"/>
	</g>
</g>
<g>
	<path fill="#FAFAFA" d="M112.2,6.2H99.1c-0.9,0-1.6,0.7-1.6,1.6v9c0,0.9,0.7,1.8,1.6,2l3.6,0.7c0,0-3.1,1.1-1.1,1.1h8.2
		c2,0-1.1-1.1-1.1-1.1l3.6-0.7c0.9-0.2,1.6-1.1,1.6-2v-9C113.9,7,113.1,6.2,112.2,6.2L112.2,6.2z M112.2,16.8H99.1V7.7h13.1V16.8z
		 M112.2,16.8"/>
</g>
<g>
	<g>
		<g>
			<path fill="#FAFAFA" d="M120.4,61.8c0,3.2-1.9,3.6-2.3,7.1c0,0.3-0.3,0.6-0.6,0.6h-6c-0.3,0-0.6-0.3-0.6-0.6h0
				c-0.4-3.5-2.3-3.9-2.3-7.1c0-3.3,2.6-5.9,5.9-5.9S120.4,58.6,120.4,61.8L120.4,61.8z M117.4,70h-5.9c-0.3,0-0.6,0.3-0.6,0.6
				s0.3,0.6,0.6,0.6h5.9c0.3,0,0.6-0.3,0.6-0.6S117.8,70,117.4,70L117.4,70z M117.4,71.8h-5.9c-0.3,0-0.6,0.3-0.6,0.6
				c0,0.3,0.3,0.6,0.6,0.6h5.9c0.3,0,0.6-0.3,0.6-0.6C118,72.1,117.8,71.8,117.4,71.8L117.4,71.8z M113.3,74.8h2.4
				c0.7,0,1.2-0.5,1.2-1.2h-4.7C112.1,74.2,112.7,74.8,113.3,74.8L113.3,74.8z M113.3,74.8"/>
		</g>
	</g>
</g>
<g>
	<g>
		<g>
			<path fill="#FAFAFA" d="M14.8,87H13v-2.8c0-0.2-0.3-0.3-0.5-0.3c-0.2,0-0.5,0.1-0.5,0.3V88h2.8c0.2,0,0.3-0.3,0.3-0.5
				C15.1,87.3,15,87,14.8,87z M14.8,87H13v-2.8c0-0.2-0.3-0.3-0.5-0.3c-0.2,0-0.5,0.1-0.5,0.3V88h2.8c0.2,0,0.3-0.3,0.3-0.5
				C15.1,87.3,15,87,14.8,87z M14.8,87H13v-2.8c0-0.2-0.3-0.3-0.5-0.3c-0.2,0-0.5,0.1-0.5,0.3V88h2.8c0.2,0,0.3-0.3,0.3-0.5
				C15.1,87.3,15,87,14.8,87z"/>
		</g>
	</g>
</g>
<g>
	<g>
		<path fill="#FAFAFA" d="M102.4,107.2c-2.5,0-4.6,2.1-4.6,4.6c0,0.5,0.1,1.1,0.3,1.6l-5.7,5.7v2.7h2.7v-1.6h1.6v-1.6h1.6l2.4-2.4
			c0.5,0.2,1,0.3,1.6,0.3c2.5,0,4.6-2.1,4.6-4.6C107,109.2,104.9,107.2,102.4,107.2L102.4,107.2z M103.7,112.1
			c-0.9,0-1.6-0.7-1.6-1.6c0-0.9,0.7-1.6,1.6-1.6c0.9,0,1.6,0.7,1.6,1.6C105.4,111.4,104.7,112.1,103.7,112.1L103.7,112.1z
			 M103.7,112.1"/>
	</g>
</g>
<g>
	<path fill="#FAFAFA" d="M13,95.2c-4.5,0-8.2-3.7-8.2-8.2s3.7-8.2,8.2-8.2s8.2,3.7,8.2,8.2S17.5,95.2,13,95.2z M13,79.8
		c-4,0-7.2,3.3-7.2,7.2S9,94.2,13,94.2s7.2-3.3,7.2-7.2S17,79.8,13,79.8z"/>
</g>
</svg>
