<?xml version="1.0" encoding="utf-8"?>
<!-- Generator: Adobe Illustrator 18.1.1, SVG Export Plug-In . SVG Version: 6.00 Build 0)  -->
<svg version="1.1" id="Security_x5F_w" xmlns="http://www.w3.org/2000/svg" xmlns:xlink="http://www.w3.org/1999/xlink" x="0px"
	 y="0px" viewBox="0 0 128 128" enable-background="new 0 0 128 128" xml:space="preserve">
<path fill="#FAFAFA" d="M64,3l56.3,20c0.1,4.3-0.3,16-5.5,31.6C108.9,72.5,95.3,99,64,124.4C34.3,99.1,20.5,72.7,14.3,54.8
	C8.8,39.3,7.9,27.4,7.7,23L64,3 M64,0l-59,21c0,0-2.1,56.2,59,107c64-50.8,59-107,59-107L64,0L64,0z"/>
<path fill="#FAFAFA" d="M77,58v-8.8C77,41.9,71.3,36,64,36s-13,5.9-13,13.2V58h-5v26h36V58H77z M53,49.2c0-6,5-10.8,11-10.8
	s11,4.8,11,10.8V58H53V49.2z"/>
</svg>
