<?xml version="1.0" encoding="utf-8"?>
<!-- Generator: Adobe Illustrator 18.1.1, SVG Export Plug-In . SVG Version: 6.00 Build 0)  -->
<svg version="1.1" id="Wireless_x5F_w" xmlns="http://www.w3.org/2000/svg" xmlns:xlink="http://www.w3.org/1999/xlink" x="0px" y="0px" viewBox="0 0 128 128" enable-background="new 0 0 128 128" xml:space="preserve"><path fill="#FAFAFA" d="M64,89.9c-7.1,0-12.9,5.8-12.9,13.1c0,7.2,5.8,13.1,12.9,13.1c7.1,0,12.9-5.8,12.9-13.1C76.9,95.8,71.1,89.9,64,89.9L64,89.9z M36.6,75.3l9.1,9.2c10.1-10.2,26.5-10.2,36.6,0l9.1-9.2C76.3,60,51.7,60,36.6,75.3L36.6,75.3z M18.3,56.8l9.1,9.2c20.2-20.4,52.9-20.4,73.1,0l9.1-9.2C84.5,31.3,43.5,31.3,18.3,56.8L18.3,56.8z M0,38.3l9.1,9.2C39.4,17,88.6,17,118.9,47.6l9.1-9.2C92.7,2.6,35.4,2.6,0,38.3L0,38.3z M0,38.3"/></svg>
