<?xml version="1.0" encoding="utf-8"?>
<!-- Generator: Adobe Illustrator 18.1.1, SVG Export Plug-In . SVG Version: 6.00 Build 0)  -->
<svg version="1.1" id="Layer_1" xmlns="http://www.w3.org/2000/svg" xmlns:xlink="http://www.w3.org/1999/xlink" x="0px" y="0px"
	 viewBox="0 0 190 170" enable-background="new 0 0 190 170" xml:space="preserve">
<g>
	<path fill="#202020" d="M63.1,54.5C57.4,45,46.1,25.8,45.2,24.4c-0.7-1.5-1.1-2.9-1.1-4c0-3.4,3.4-5.5,10.2-6.4v-2.3
		c-1.8,0-3.5,0-5,0c-1.5,0-2.9,0-4.4,0.1c-1.4,0,0.9,0.1-0.6,0.1c-1.5,0-10.7,0-12.5,0c-3.7,0-7.1,0-10.3-0.1
		c-3.1,0-6.6-0.1-10.3-0.1V14c2.8,0.4,5.4,0.9,7.7,1.5c2.3,0.6,4.5,1.7,6.8,3.3c2.1,1.5,4.5,3.7,6.9,6.4
		c2.5,3.8,17.5,28.6,23.6,38.5L63.1,54.5z"/>
	<path fill="#202020" d="M181.5,149.8c-54.3,26-106.3-76.1-110.7-83.5L91.6,37c3.4-4.8,6.4-8.6,9-11.4c2.6-2.9,5-5.1,7.2-6.7
		c2.2-1.6,4.5-2.7,6.8-3.3c2.3-0.6,4.9-1.1,7.7-1.5v-2.3c-3.7,0-7.1,0-10.3,0.1c-3.1,0-6.6,0.1-10.2,0.1c-1.9,0-3.5,0-5,0
		c-1.5,0-2.9,0-4.4-0.1c-1.4-0.1-2.8-0.1-4.4-0.1c-1.5,0-3.2,0-5,0V14c6.8,0.9,10.2,3,10.2,6.4c0,1.7-0.8,3.7-2.2,6.2
		c-1.5,2.5-3.5,5.4-6.1,8.8l-46.6,64.7c-3.4,4.6-6.2,8.4-8.5,11.1c-2.3,2.7-4.5,4.8-6.5,6.3c-2.1,1.5-4.3,2.5-6.5,3.1
		c-2.3,0.6-5,1.1-8.2,1.5v2c3.7-0.1,7.1-0.2,10.3-0.2c3.2-0.1,6.7-0.1,10.4-0.1c1.9,0,3.5,0,5,0c1.4,0,2.9,0,4.3,0.1
		c1.4,0,2.9,0.1,4.4,0.2c1.5,0,3.1,0.1,4.9,0.1v-2c-3.6-0.4-6.3-0.9-8.1-1.5c-1.8-0.6-2.7-1.9-2.7-3.9c0-1,0.3-2.1,1-3.3
		c0.6-1.3,1.4-2.6,2.3-4.1c0.9-1.4,2-2.9,3.2-4.5c1.2-1.5,2.3-3.1,3.3-4.5l17.2-24.3c6.6,10.7,58.7,107.8,118.8,76.3L181.5,149.8z"
		/>
</g>
</svg>
